<svg width="101" height="49" viewBox="0 0 101 49" fill="none" xmlns="http://www.w3.org/2000/svg">
<path d="M25.8034 10.7302C24.9668 9.44194 23.7968 8.29128 22.2956 7.28473C20.7943 6.27603 19.149 5.54047 17.3596 5.07591C15.5702 4.61135 13.8582 4.50381 12.2193 4.75545C10.931 4.95332 9.79109 5.36626 8.79959 5.99858C7.80809 6.62875 7.00156 7.45249 6.37784 8.46549C5.61432 9.74089 5.3928 11.0916 5.71111 12.5218C6.02942 13.9499 6.78003 15.3027 7.9651 16.5803C9.14801 17.8557 10.6127 18.9095 12.3569 19.7419C13.3248 20.1935 14.4367 20.4774 15.6928 20.5936C16.9488 20.7119 18.2392 20.6667 19.5663 20.4645C21.1664 20.2194 22.6354 19.7806 23.9774 19.1461C25.3174 18.5117 26.2895 17.7589 26.896 16.8878L27.3649 17.2062C26.2185 18.9784 24.5904 20.5011 22.4784 21.7722C20.3663 23.0433 18.0134 23.8778 15.4196 24.2757C12.8839 24.665 10.6836 24.5359 8.81679 23.895C6.95209 23.2519 5.5455 22.155 4.59917 20.6022C3.65284 19.0493 3.26785 17.1524 3.44206 14.9091C3.62058 12.6853 4.30237 10.6442 5.48528 8.78596C6.66819 6.92771 8.24469 5.38777 10.2148 4.16829C12.1849 2.94881 14.4088 2.14873 16.8864 1.76805C19.306 1.39812 21.4826 1.50351 23.4183 2.08636C25.3539 2.66922 26.8487 3.65856 27.9004 5.0544C28.4682 5.7663 28.5693 6.65886 28.2058 7.73209C27.8402 8.80531 27.1218 9.74519 26.0465 10.5496L25.8056 10.7367L25.8034 10.7302Z" fill="#717171"/>
<path d="M31.953 3.31646L31.0948 1.83674L31.155 1.53994L38.5257 0H38.8504L36.0372 12.1087C37.0631 10.6677 38.3622 9.51278 39.9301 8.64602C41.5001 7.77712 43.0723 7.34267 44.6531 7.34267C46.3694 7.34267 47.6126 7.87606 48.3825 8.94068C49.1525 10.0075 49.3396 11.4076 48.946 13.1454L47.3781 19.9547C47.1996 20.7634 47.2986 21.415 47.6749 21.9076C48.0492 22.4001 48.6428 22.6474 49.4515 22.6474H49.5117L49.4515 22.9442H37.8159L37.8761 22.6474H37.9363C38.745 22.6474 39.4569 22.4001 40.0677 21.9076C40.6786 21.415 41.0743 20.7634 41.2528 19.9547L42.7046 13.7089C42.9024 12.84 42.7691 12.1453 42.3045 11.6227C41.84 11.1 41.1259 10.8376 40.1581 10.8376C39.1902 10.8376 38.3557 11.0742 37.5385 11.5474C36.719 12.0206 36.1211 12.6421 35.7469 13.4121L34.237 19.9547C34.0585 20.7634 34.1575 21.415 34.5339 21.9076C34.9081 22.4001 35.5017 22.6474 36.3104 22.6474H36.3706L36.3104 22.9442H24.6748L24.735 22.6474H24.7952C25.6039 22.6474 26.3158 22.4001 26.9266 21.9076C27.5375 21.415 27.9332 20.7634 28.1117 19.9547L31.9594 3.31646H31.953Z" fill="#717171"/>
<path d="M64.9581 10.6915C66.4335 13.0982 67.0895 15.9286 66.9239 19.1826C66.7604 22.3937 65.855 24.723 64.2053 26.1704C62.5557 27.6179 60.4028 27.9921 57.7445 27.2867C55.1119 26.5167 53.0472 24.9295 51.5503 22.5228C50.0512 20.1161 49.3845 17.2943 49.5501 14.0639C49.7157 10.8334 50.6298 8.51921 52.3031 7.061C53.9742 5.60279 56.1293 5.23501 58.7639 5.95982C61.418 6.70828 63.4848 8.28478 64.9602 10.6915H64.9581ZM52.6278 17.1437C52.0321 18.318 51.7095 19.3848 51.66 20.3462C51.6041 21.4388 51.9095 22.3184 52.5762 22.9873C53.4924 23.91 54.7549 24.067 56.3615 23.4583C57.9681 22.8497 59.6307 21.5936 61.347 19.6881C62.4159 18.4729 63.2547 17.2728 63.8612 16.0877C64.4677 14.9026 64.7968 13.8316 64.8463 12.8702C64.9022 11.7776 64.5968 10.8979 63.93 10.2291C62.9923 9.30639 61.7191 9.14723 60.1124 9.7559C58.5058 10.3646 56.8541 11.6206 55.1593 13.5283C54.0667 14.765 53.2236 15.9694 52.6278 17.1437Z" fill="#717171"/>
<path d="M67.8682 12.7132C67.6725 12.0013 67.4166 11.4615 67.1025 11.0937C66.7885 10.7281 66.3197 10.5646 65.6959 10.6076L65.6465 10.6119L65.6766 10.3366L75.3614 9.68279L75.3313 9.95809L75.2819 9.96239C74.6087 10.0076 74.0882 10.2656 73.7247 10.7367C73.3612 11.2077 73.2645 11.7411 73.4365 12.3411L76.0217 22.0195L79.4543 12.3562L79.3274 11.9432C79.1317 11.2313 78.8758 10.6915 78.5618 10.3237C78.2477 9.95809 77.7789 9.79463 77.1552 9.83765L77.1057 9.84195L77.1358 9.56665L86.8206 8.91282L86.7905 9.18812L86.7411 9.19242C86.0679 9.23759 85.5474 9.49568 85.1839 9.96669C84.8204 10.4377 84.7237 10.9711 84.8957 11.5712L87.4809 21.2495L93.1976 5.75982C93.4471 5.06728 93.4514 4.52099 93.2105 4.12525C92.9696 3.72951 92.5201 3.55315 91.862 3.59831L91.7889 3.60262L91.819 3.32732L100.222 2.75952L100.192 3.03482L100.142 3.03912C99.6821 3.06923 99.166 3.31226 98.5939 3.76177C98.0218 4.21343 97.4948 4.79413 97.0152 5.50173L87.5799 21.6625L82.0352 22.0367L80.4437 16.0791L76.1206 22.4368L70.576 22.811L67.8639 12.7197L67.8682 12.7132Z" fill="#717171"/>
<path d="M1.80777 31.5903C1.4701 32.528 1.5927 33.1883 2.17555 33.5733C2.7584 33.9583 3.6058 34.1604 4.71989 34.1798C5.83183 34.2013 7.41908 34.1389 9.47735 33.997C12.2389 33.8249 14.4994 33.7755 16.2565 33.8486C18.0137 33.9239 19.5321 34.3368 20.8161 35.0874C22.098 35.838 22.7561 37.1048 22.7905 38.8857C22.8421 40.9869 21.9582 42.8258 20.1408 44.4023C18.3234 45.9788 15.8629 47.1488 12.7594 47.9145C9.98063 48.6006 7.56318 48.7533 5.50922 48.3769C3.4531 48.0005 1.83143 47.166 0.637761 45.8734C0.0269477 45.211 -0.145113 44.3292 0.121581 43.2259C0.388274 42.1225 1.0206 41.1246 2.01854 40.2277L2.23362 39.9911C3.29179 41.316 4.68763 42.4193 6.42114 43.3033C8.15249 44.1873 9.98923 44.7658 11.9271 45.0411C13.8649 45.3164 15.6565 45.2497 17.3061 44.8432C18.3406 44.5873 19.1794 44.2195 19.8225 43.7334C20.4655 43.2495 20.8699 42.6817 21.0333 42.0322C21.199 41.3009 20.9839 40.7848 20.3924 40.4837C19.7988 40.1826 18.9923 40.0212 17.9707 39.9976C16.9491 39.9761 15.493 40.004 13.6003 40.0836C10.828 40.2191 8.55468 40.2299 6.77816 40.1202C5.00164 40.0083 3.45955 39.5631 2.14759 38.7781C0.835631 37.9931 0.171048 36.7005 0.153842 34.8939C0.117279 32.7689 0.999088 30.9042 2.79927 29.3019C4.59945 27.6996 6.93732 26.5425 9.81072 25.8349C12.34 25.2112 14.609 25.0993 16.6179 25.4972C18.6267 25.8973 20.2268 26.7404 21.4205 28.033C22.0507 28.6911 22.2292 29.5772 21.9539 30.6913C21.6807 31.8054 21.042 32.8012 20.0375 33.6787L19.8139 33.8873C18.4503 32.1495 16.5555 30.8182 14.1316 29.8912C12.3615 29.2309 10.7205 28.8115 9.20206 28.6373C7.68578 28.4631 6.37167 28.5126 5.25973 28.7857C3.47675 29.2245 2.3261 30.16 1.80347 31.5903H1.80777Z" fill="#717171"/>
<path d="M26.5907 26.1081C27.0337 25.4994 27.8424 24.9768 29.021 24.5423C30.1975 24.1079 31.4879 23.8906 32.8924 23.8906C34.9291 23.8906 36.4368 24.3702 37.4154 25.3316C38.3919 26.293 38.6973 27.5663 38.3295 29.1514L37.153 34.2616L37.9294 35.5133L37.88 35.7628L31.617 37.0661H31.3675L32.045 34.1347C31.3094 35.1197 30.5502 35.8961 29.7652 36.4639C28.9802 37.0317 28.036 37.3156 26.9348 37.3156C25.6314 37.3156 24.6292 36.9156 23.928 36.1134C23.2269 35.3111 23.0011 34.2938 23.2506 33.0571C23.5345 31.8204 24.2141 30.915 25.2916 30.3386C26.3691 29.7622 27.4961 29.4202 28.6748 29.3105C29.8534 29.203 31.1266 29.1643 32.4945 29.1987H33.172C33.3892 28.2803 33.501 27.4372 33.5096 26.6672C33.5182 25.8994 33.3548 25.2736 33.0214 24.7875C32.8537 24.5208 32.6278 24.3874 32.3439 24.3874C31.9762 24.3874 31.4836 24.7165 30.8664 25.3768C30.2491 26.0371 29.363 27.1512 28.2102 28.7212L26.8574 27.719C26.2401 27.2523 26.1519 26.7124 26.595 26.1037L26.5907 26.1081ZM33.0687 29.7278C31.3976 29.7278 30.1545 30.0568 29.335 30.7171C28.5156 31.3774 28.2833 32.2506 28.6339 33.3346C28.9178 34.2357 29.4017 34.6874 30.0878 34.6874C30.7739 34.6874 31.475 34.2874 32.1934 33.4851L33.0709 29.7278H33.0687Z" fill="#717171"/>
<path d="M41.816 31.545C41.3708 31.0568 41.074 30.5062 40.9235 29.8911C40.7729 29.276 40.7492 28.6695 40.8503 28.0737C41.0331 26.8456 41.6504 25.8735 42.7 25.1573C43.7495 24.4411 45.0658 24.0281 46.6488 23.9185C47.894 23.8324 48.9372 23.9443 49.7803 24.2518C50.6234 24.5594 51.2148 24.9702 51.5546 25.4821C51.8579 25.9789 51.8729 26.5359 51.6041 27.1532C51.3331 27.7705 50.7632 28.377 49.8942 28.9727L49.6899 29.1211C49.2103 28.4049 48.3242 27.5403 47.0316 26.5316C45.7368 25.5229 44.6722 25.0476 43.8377 25.1035C43.4635 25.1293 43.1624 25.2756 42.9301 25.5423C42.472 26.1638 42.6333 26.9381 43.4119 27.8672C44.1905 28.7964 45.4831 29.8954 47.2854 31.1643L51.4729 30.874L50.8255 35.0744L46.823 34.1732L45.4917 42.4407C45.382 43.1806 45.511 43.7613 45.8809 44.1828C46.2487 44.6044 46.7993 44.7894 47.5284 44.7399L47.5822 44.7356L47.5478 45.0066L37.0908 45.7314L37.1252 45.4604L37.179 45.4561C37.9081 45.4066 38.5318 45.1399 39.0545 44.656C39.5749 44.1742 39.8911 43.5613 39.9986 42.8214L41.5945 32.9817L38.7082 32.3236L38.777 31.7558L41.8182 31.545H41.816Z" fill="#717171"/>
<path d="M52.7761 30.9106C53.2987 30.1901 54.2558 29.5729 55.6474 29.061C57.0389 28.547 58.5638 28.291 60.222 28.291C62.6287 28.291 64.4117 28.8588 65.5666 29.9923C66.7216 31.1279 67.0808 32.6312 66.6463 34.5067L65.2548 40.546L66.1731 42.0257L66.1129 42.3225L58.7122 43.8625H58.4154L59.2155 40.3998C58.3466 41.5655 57.4497 42.4817 56.5206 43.1527C55.5936 43.8238 54.4774 44.1593 53.1762 44.1593C51.6362 44.1593 50.4533 43.6861 49.6231 42.7376C48.7951 41.7913 48.5284 40.5869 48.823 39.1265C49.1585 37.6661 49.9629 36.5951 51.2362 35.9133C52.5094 35.2315 53.8407 34.8272 55.2323 34.7003C56.6238 34.5712 58.1293 34.5282 59.7467 34.5669H60.5468C60.8027 33.4808 60.9361 32.485 60.9468 31.5774C60.9554 30.6698 60.764 29.9299 60.3704 29.3578C60.1726 29.0416 59.9059 28.8846 59.5703 28.8846C59.1359 28.8846 58.553 29.2739 57.8239 30.0546C57.0927 30.8354 56.0474 32.1516 54.686 34.0077L53.088 32.8227C52.3567 32.2699 52.2535 31.6333 52.7761 30.9128V30.9106ZM60.4306 35.1885C58.4563 35.1885 56.9873 35.5778 56.0194 36.3585C55.0516 37.1392 54.7763 38.1694 55.1914 39.4513C55.5269 40.518 56.099 41.0493 56.9077 41.0493C57.7164 41.0493 58.5466 40.5761 59.394 39.6276L60.4306 35.1863V35.1885Z" fill="#717171"/>
<path d="M69.5669 28.9191L68.3581 27.6868L68.3474 27.3856L75.1567 24.1703L75.4728 24.095L75.5545 31.2914C75.7997 30.2784 76.146 29.145 76.5955 27.8911C77.045 26.6372 77.6128 25.4908 78.2989 24.4542C78.9829 23.4175 79.7292 22.8024 80.5357 22.6088C81.2261 22.4432 81.8132 22.6475 82.295 23.2218C82.7768 23.796 83.0112 24.6026 82.9962 25.6414L82.9488 27.6007C82.2843 27.6179 81.7208 27.6825 81.2605 27.7921C79.955 28.104 78.7721 28.6976 77.7139 29.5708C76.6536 30.444 75.9309 31.3839 75.5438 32.3904L75.5804 36.735C75.5954 37.563 75.8449 38.1738 76.3245 38.5653C76.8041 38.9588 77.4365 39.0599 78.2236 38.8707L78.2817 38.8578L78.2925 39.1589L66.9795 41.871L66.9688 41.5699L67.0268 41.557C67.814 41.3677 68.4463 40.9633 68.9259 40.3396C69.4056 39.7181 69.6378 38.9911 69.6228 38.1631L69.569 28.9213L69.5669 28.9191Z" fill="#717171"/>
<path d="M82.1534 33.0355L81.5985 31.6482L81.6888 31.403L88.197 31.1019L88.4744 31.1471L84.3536 41.2771C84.0912 41.9439 84.0847 42.5138 84.3385 42.987C84.5902 43.4602 85.0633 43.7527 85.7537 43.8624L85.8053 43.871L85.715 44.1161L75.7764 42.516L75.8667 42.2708L75.9183 42.2794C76.6087 42.3912 77.2496 42.2794 77.8411 41.9396C78.4304 41.6019 78.8584 41.1008 79.1208 40.4341L82.1534 33.0355ZM86.214 24.8927C86.8807 24.5163 87.6012 24.3894 88.3755 24.5142C89.1497 24.6389 89.7111 24.9744 90.0036 25.5164C90.2961 26.0563 90.2896 26.6993 89.9778 27.4457C89.6831 28.1941 89.1992 28.7641 88.5217 29.1577C87.8442 29.5512 87.1087 29.6824 86.3172 29.5555C85.5408 29.4308 85.0074 29.0974 84.7127 28.5576C84.4181 28.0178 84.4288 27.3661 84.7429 26.6026C85.0547 25.8412 85.5451 25.2712 86.2118 24.8927H86.214Z" fill="#717171"/>
<path d="M38.188 36.5908L36.4674 43.5636C36.4674 43.5636 36.8675 40.7912 29.7528 42.3914C25.6793 43.3076 20.9971 46.0928 20.9971 46.0928C24.9114 41.5225 29.6625 37.7436 38.188 36.5908Z" fill="#717171"/>
</svg>
