<svg width="146" height="33" viewBox="0 0 146 33" fill="none" xmlns="http://www.w3.org/2000/svg">
<g clip-path="url(#clip0_86_39)">
<path d="M31.767 0.972246L31.6249 21.3147C31.6237 21.5706 31.5196 21.8143 31.3384 21.9943L21.2755 31.9494C21.0943 32.1282 20.8506 32.2286 20.5959 32.2286H0.966123C0.432245 32.2286 0 31.7963 0 31.2625V13.189C0 12.6551 0.432245 12.2229 0.966123 12.2229H9.58776C10.1216 12.2229 10.5539 12.6551 10.5539 13.189V20.7478C10.5539 21.2816 10.9861 21.7139 11.52 21.7139H20.1159C20.6437 21.7139 21.0747 21.289 21.0821 20.7612L21.207 11.4931C21.2143 10.9543 20.7796 10.5147 20.2408 10.5147H2.50163C1.63837 10.5147 1.20857 9.46899 1.82204 8.86286L10.4988 0.279184C10.68 0.100408 10.9237 0 11.1784 0H30.8008C31.3372 0 31.7706 0.435919 31.767 0.972246Z" fill="#717171"/>
</g>
<path d="M42.6329 23.0664H37.6748V7.91057H42.6329C46.8116 7.91057 49.8427 10.8768 49.8427 15.4885C49.8427 20.1002 46.8116 23.0664 42.6329 23.0664ZM41.8101 8.38689H39.4502V22.5684H41.8101C45.7074 22.5684 48.089 19.4074 48.089 15.4885C48.089 11.5913 45.7074 8.38689 41.8101 8.38689ZM56.0972 12.9553C55.2095 12.9553 54.2785 13.2801 53.5424 14.0595C52.7196 14.8823 52.3732 16.0731 52.7196 17.4154H60.2976C60.2976 15.1637 58.4572 12.9553 56.0972 12.9553ZM51.5072 17.6753C51.5072 14.6657 53.9105 12.2625 56.8983 12.2625C60.1243 12.2625 62.073 14.6441 62.073 17.8918H52.9145C53.4341 20.1651 55.7292 21.8972 58.0242 21.8972C59.0201 21.8972 59.9728 21.5725 60.6873 20.8363L61.012 21.1394C60.081 22.3303 58.5655 23.0664 56.8983 23.0664C53.9105 23.0664 51.5072 20.6631 51.5072 17.6753ZM65.3019 9.16634H66.1463V12.2625H69.3073V12.7171H66.1463V20.4683C66.1463 21.5075 66.5143 22.0271 67.0989 22.3086C67.2938 22.3736 67.5103 22.3952 67.7701 22.3952C68.2681 22.3952 68.831 22.2437 69.4156 22.0055L69.6104 22.4818C68.8094 22.8715 68.0083 23.0664 67.2072 23.0664C65.6916 23.0664 64.4575 22.1787 64.4575 20.0569V12.7171H62.6388V12.2625C64.6956 12.2625 65.3019 11.3098 65.3019 9.16634ZM74.7037 12.9553C73.816 12.9553 72.885 13.2801 72.1489 14.0595C71.3261 14.8823 70.9797 16.0731 71.3261 17.4154H78.9041C78.9041 15.1637 77.0637 12.9553 74.7037 12.9553ZM70.1137 17.6753C70.1137 14.6657 72.517 12.2625 75.5048 12.2625C78.7308 12.2625 80.6795 14.6441 80.6795 17.8918H71.521C72.0406 20.1651 74.3357 21.8972 76.6307 21.8972C77.6266 21.8972 78.5793 21.5725 79.2938 20.8363L79.6185 21.1394C78.6875 22.3303 77.172 23.0664 75.5048 23.0664C72.517 23.0664 70.1137 20.6631 70.1137 17.6753ZM84.4385 14.0595C85.4561 13.2151 86.7119 12.2625 88.0542 12.2625C88.877 12.2625 89.5049 12.5872 90.0461 13.1502L88.812 14.4492C88.2924 13.7564 87.5779 13.4316 86.9717 13.4316C86.0623 13.4533 85.1313 14.0595 84.4385 14.6008V23.0881H82.7497V12.2625H83.5941C84.0704 12.2625 84.4385 12.6305 84.4385 13.1069V14.0595ZM93.4034 14.0595C94.421 13.2151 95.6768 12.2625 97.0192 12.2625C97.8419 12.2625 98.4698 12.5872 99.0111 13.1502L97.777 14.4492C97.2573 13.7564 96.5428 13.4316 95.9366 13.4316C95.0273 13.4533 94.0963 14.0595 93.4034 14.6008V23.0881H91.7146V12.2625H92.559C93.0353 12.2625 93.4034 12.6305 93.4034 13.1069V14.0595ZM103.967 12.9553C103.079 12.9553 102.148 13.2801 101.412 14.0595C100.589 14.8823 100.243 16.0731 100.589 17.4154H108.167C108.167 15.1637 106.327 12.9553 103.967 12.9553ZM99.3766 17.6753C99.3766 14.6657 101.78 12.2625 104.768 12.2625C107.994 12.2625 109.942 14.6441 109.942 17.8918H100.784C101.304 20.1651 103.599 21.8972 105.894 21.8972C106.89 21.8972 107.842 21.5725 108.557 20.8363L108.881 21.1394C107.95 22.3303 106.435 23.0664 104.768 23.0664C101.78 23.0664 99.3766 20.6631 99.3766 17.6753ZM113.701 14.0595C114.871 13.1502 116.798 12.2625 118.378 12.2625C119.894 12.2625 121.041 12.9986 121.041 15.1204V23.0881H119.352V15.4235C119.352 13.778 118.486 13.2368 117.382 13.2151C116.17 13.2151 114.611 13.9513 113.701 14.6008V23.0881H112.013V12.2625H112.857C113.333 12.2625 113.701 12.6305 113.701 13.1069V14.0595ZM123.163 17.6753C123.163 14.6657 125.567 12.2625 128.554 12.2625C130.2 12.2625 131.651 12.9553 132.668 14.1028L131.326 15.1637C130.308 14.1028 128.684 13.345 127.212 13.345C126.411 13.345 125.653 13.6048 125.069 14.1678C123.618 15.6184 124.029 18.3681 125.935 20.2951C126.931 21.3127 128.36 21.8972 129.68 21.8972C130.676 21.8972 131.651 21.5725 132.343 20.8363L132.668 21.1394C131.737 22.3303 130.222 23.0664 128.554 23.0664C125.567 23.0664 123.163 20.6631 123.163 17.6753ZM138.473 12.9553C137.586 12.9553 136.655 13.2801 135.918 14.0595C135.096 14.8823 134.749 16.0731 135.096 17.4154H142.674C142.674 15.1637 140.833 12.9553 138.473 12.9553ZM133.883 17.6753C133.883 14.6657 136.287 12.2625 139.274 12.2625C142.5 12.2625 144.449 14.6441 144.449 17.8918H135.291C135.81 20.1651 138.105 21.8972 140.4 21.8972C141.396 21.8972 142.349 21.5725 143.063 20.8363L143.388 21.1394C142.457 22.3303 140.942 23.0664 139.274 23.0664C136.287 23.0664 133.883 20.6631 133.883 17.6753Z" fill="#717171"/>
<defs>
<clipPath id="clip0_86_39">
<rect width="31.767" height="32.2286" fill="white"/>
</clipPath>
</defs>
</svg>
