<svg width="131" height="63" viewBox="0 0 131 63" fill="none" xmlns="http://www.w3.org/2000/svg">
<g clip-path="url(#clip0_86_72)">
<path d="M65.346 23.603C69.1399 23.603 72.2155 20.5274 72.2155 16.7335C72.2155 12.9396 69.1399 9.86401 65.346 9.86401C61.5521 9.86401 58.4766 12.9396 58.4766 16.7335C58.4766 20.5274 61.5521 23.603 65.346 23.603Z" fill="#717171"/>
<path d="M62.0568 32.8346C53.0578 31.4732 46.2139 24.6208 46.2139 16.3713C46.2139 8.12178 52.7689 1.55992 61.4824 -0.000244141C57.5599 2.54564 54.7812 8.86107 54.7812 16.2472C54.7812 23.6333 57.8335 30.5521 62.0568 32.8346Z" fill="#717171"/>
<path d="M84.4784 16.3713C84.4784 24.6208 77.6345 31.4749 68.6338 32.8346C72.8571 30.5521 75.9094 23.9885 75.9094 16.2472C75.9094 8.50587 73.1307 2.54564 69.2082 -0.000244141C77.9234 1.55992 84.4784 8.29683 84.4784 16.3713Z" fill="#717171"/>
<path d="M1.54369 56.9529V40.0435H7.95596L11.0434 51.7756L14.202 40.0435H20.448V56.9529H16.2682L16.4819 44.0571L12.7058 56.9529H9.30967L5.5573 44.0808L5.6998 56.9529H1.54369ZM32.5786 40.0197L38.8959 56.9529H34.3361L33.2436 53.8655H27.4013L26.2851 56.9529H21.7728L28.1138 40.0197H32.5786ZM32.2461 50.6831L30.3462 44.7696L28.3988 50.6831H32.2461ZM44.6694 40.0435V56.9529H40.2283V40.0435H44.6694ZM47.6957 56.9529V40.0435H52.113L58.2166 50.7306L58.0266 40.0435H62.3014V56.9529H58.0028L51.8281 46.0995L51.9468 56.9529H47.6957ZM77.6484 53.153V56.9529H65.3226V40.0435H69.7637V53.153H77.6484ZM88.9133 40.0197L95.2305 56.9529H90.6707L89.5782 53.8655H83.736L82.6197 56.9529H78.1074L84.4484 40.0197H88.9133ZM88.5808 50.6831L86.6809 44.7696L84.7334 50.6831H88.5808ZM96.5392 56.9529V40.0435H100.957L107.06 50.7306L106.87 40.0435H111.145V56.9529H106.846L100.672 46.0995L100.79 56.9529H96.5392ZM114.214 56.9529V40.0672H121.457C124.069 40.0672 126.088 40.7797 127.561 42.2522C129.033 43.7246 129.769 45.767 129.769 48.4269C129.769 51.2531 129.033 53.3905 127.608 54.8155C126.159 56.2404 124.022 56.9529 121.22 56.9529H114.214ZM118.607 53.2955H121.03C123.879 53.2955 125.328 51.7043 125.328 48.5457C125.328 47.002 124.924 45.8145 124.141 44.9833C123.357 44.1283 122.217 43.7246 120.721 43.7246H118.607V53.2955Z" fill="#717171"/>
</g>
<defs>
<clipPath id="clip0_86_72">
<rect width="130.693" height="62.3725" fill="white"/>
</clipPath>
</defs>
</svg>
