<svg width="169" height="47" viewBox="0 0 169 47" fill="none" xmlns="http://www.w3.org/2000/svg">
<path d="M37.7695 39.0499C37.7695 39.2128 37.6376 39.3447 37.4748 39.3447C31.4279 39.3447 26.5259 34.4427 26.5259 28.3959L26.5259 26.6851C26.5259 26.4969 26.6785 26.3443 26.8667 26.3443L35.9685 26.3443C36.9632 26.3443 37.7695 27.1506 37.7695 28.1453L37.7695 39.0499Z" fill="#717171"/>
<path d="M18.8457 36.5338C18.8457 38.0862 20.1042 39.3447 21.6566 39.3447C23.209 39.3447 24.4675 38.0862 24.4675 36.5338L24.4675 29.1552C24.4675 27.6028 23.209 26.3443 21.6566 26.3443C20.1042 26.3443 18.8457 27.6028 18.8457 29.1552L18.8457 36.5338Z" fill="#717171"/>
<path d="M5.54395 39.3447C11.7536 39.3447 16.7876 34.3108 16.7876 28.1011L16.7876 26.6851C16.7876 26.4969 16.635 26.3443 16.4468 26.3443L7.34495 26.3443C6.35028 26.3443 5.54394 27.1506 5.54394 28.1453L5.54395 39.3447Z" fill="#717171"/>
<path d="M37.7695 22.98C37.7695 23.8778 37.0417 24.6057 36.1438 24.6057L6.94867 24.6057C6.11769 24.6057 5.44405 23.9321 5.44405 23.1011C5.44405 17.5283 9.96168 13.0107 15.5344 13.0107L27.8003 13.0107C33.3062 13.0107 37.7695 17.4741 37.7695 22.98Z" fill="#717171"/>
<path d="M39.1634 18.955L39.068 18.472C38.436 15.2715 36.0139 12.723 32.8496 11.9292" stroke="#717171" stroke-width="1.88682" stroke-linecap="round"/>
<path d="M41.9642 17.0185L41.8688 16.5355C41.2368 13.3349 38.8146 10.7865 35.6504 9.99269" stroke="#717171" stroke-width="1.88682" stroke-linecap="round"/>
<path d="M44.6631 15.4315L44.5818 14.9459C44.0428 11.7284 41.6955 9.11078 38.5556 8.22561" stroke="#717171" stroke-width="1.88682" stroke-linecap="round"/>
<path d="M64.8994 26.102C64.9277 26.102 65.0408 26.1585 65.0973 26.4413C65.2387 27.2612 65.2953 28.6749 65.2953 29.9472C65.2953 30.5693 65.2952 31.0782 65.2387 31.3892C64.9277 33.3967 63.514 33.4532 63.514 34.6124C63.514 35.2062 63.9664 35.602 64.8429 35.602C66.0021 35.602 67.2744 35.5172 68.4902 35.5172C69.2819 35.5172 70.8369 35.602 71.9962 35.602C72.8444 35.602 73.1554 35.1496 73.1554 34.5276C73.1554 33.1987 71.6852 33.5663 71.2893 30.7389C70.9783 28.5053 70.7804 26.2151 70.7804 23.9249C70.7804 23.2181 70.8087 22.0871 70.8652 21.352C71.1197 18.5246 72.5334 18.6094 72.5334 17.2805C72.5334 16.6585 72.2224 16.2061 71.3459 16.2061C70.6956 16.2061 69.7908 16.291 69.2253 16.291C67.3875 16.291 66.3697 16.4041 65.7759 16.7716C65.2387 17.1109 64.7863 17.7329 64.3057 18.7225C63.7402 19.8817 62.0438 24.0097 61.7327 24.8014C61.6196 25.0559 61.5065 25.1124 61.4217 25.1124C61.2804 25.1124 61.1955 24.971 61.1107 24.7731C60.0646 22.3133 58.9619 19.8252 58.3964 18.8073C58.0571 18.1853 57.4068 17.1957 56.7848 16.7999C56.1628 16.4041 55.6539 16.291 53.5899 16.291C52.7134 16.291 51.2714 16.2061 50.6211 16.2061C49.7446 16.2061 49.4336 16.6585 49.4336 17.2805C49.4336 18.6094 50.8473 18.5246 51.1018 21.352C51.1583 22.0871 51.1866 23.2181 51.1866 23.9249C51.1866 26.2151 50.9887 28.5053 50.6776 30.7389C50.2818 33.5663 48.8398 33.1987 48.8398 34.5276C48.8398 35.1496 49.1509 35.602 49.9991 35.602C51.1583 35.602 52.0065 35.5172 52.7982 35.5172C53.4485 35.5172 53.8726 35.602 55.0884 35.602C55.9649 35.602 56.2759 35.1496 56.2759 34.5276C56.2759 33.538 55.4559 33.4249 54.947 32.2374C54.636 31.5023 54.4381 29.6362 54.4381 27.4874C54.4381 27.0068 54.4381 26.8088 54.4663 26.6675C54.4946 26.413 54.5794 26.2716 54.6925 26.2716C54.8339 26.2716 54.9753 26.5544 55.2015 27.0916C56.6434 30.4562 57.9158 33.6794 58.3964 34.7255C58.6226 35.2345 59.0467 35.6586 59.4991 35.6586C60.4321 35.6586 61.0542 35.0648 61.4783 34.2732C62.0155 33.1987 62.6658 31.4175 63.0899 30.2017C63.825 28.1377 64.5601 26.102 64.8994 26.102Z" fill="#717171"/>
<path d="M86.7677 25.5082C87.7149 22.8505 88.7328 23.0767 88.7328 21.8609C88.7328 21.352 88.5066 20.9279 87.7008 20.9279C87.1494 20.9279 86.7253 21.0127 85.9336 21.0127C85.2127 21.0127 84.2938 20.9279 83.5162 20.9279C82.9366 20.9279 82.4842 21.2954 82.4842 21.9457C82.4842 22.8222 83.5869 23.3029 83.5869 24.7166C83.5869 24.9428 83.5304 25.2679 83.4031 25.6779C83.0214 26.9644 82.4984 29.0142 82.1167 29.0142C81.8905 29.0142 81.4522 27.855 80.9433 26.724C80.3778 25.48 80.0527 24.5187 80.0527 24.0097C80.0527 23.1615 80.7313 22.7374 80.7313 22.1437C80.7313 21.1823 80.3213 20.9279 79.5437 20.9279C78.4835 20.9279 77.4515 21.0127 76.4619 21.0127C75.4299 21.0127 74.723 20.9279 73.7193 20.9279C72.9418 20.9279 72.546 21.352 72.546 21.974C72.546 22.6809 72.9701 23.1332 73.4649 23.6987C74.2848 24.6318 76.5043 29.8342 77.1546 31.4175C78.0735 33.6511 79.261 35.7717 79.261 36.733C79.261 37.2702 78.8652 37.5529 78.5117 37.5529C78.0028 37.5529 77.6918 36.9874 77.1829 36.5351C76.8436 36.2241 76.4195 35.9413 75.7833 35.9413C74.4827 35.9413 73.4507 37.1288 73.4507 38.7404C73.4507 40.6065 74.8361 41.794 76.6739 41.794C80.6323 41.794 82.4277 36.4644 84.7461 30.8379C85.1278 29.9331 86.0467 27.544 86.7677 25.5082Z" fill="#717171"/>
<path d="M94.1419 27.346C93.8309 27.346 93.7461 27.233 93.7461 27.0633C93.7461 26.6675 94.3681 24.8862 94.877 23.9815C94.9619 23.8118 95.075 23.6422 95.188 23.6422C95.2729 23.6422 95.4142 23.8118 95.4991 23.9815C96.0645 24.971 96.5735 26.6109 96.5735 27.0633C96.5735 27.233 96.4886 27.346 96.1494 27.346H94.1419ZM89.0526 30.7672C87.9499 33.6511 86.7907 33.538 86.7907 34.6124C86.7907 35.2345 87.1865 35.602 87.9217 35.602C88.6851 35.602 89.194 35.5172 89.9857 35.5172C90.8056 35.5172 91.6538 35.602 92.4172 35.602C93.5199 35.602 93.8592 35.1496 93.8592 34.5842C93.8592 33.6511 92.3041 33.2836 92.3041 31.8981C92.3041 31.3327 92.5586 31.0782 92.6999 30.9368C92.8696 30.7672 93.1806 30.6258 93.5482 30.6258H97.1955C97.4217 30.6258 97.6761 30.7389 97.761 30.8803C97.9023 31.1065 97.9872 31.2478 97.9872 31.5023C97.9872 33.0856 96.1494 33.538 96.1494 34.4993C96.1494 35.1779 96.63 35.602 97.6479 35.602C98.6657 35.602 99.7401 35.5172 101.352 35.5172C102.992 35.5172 103.868 35.602 104.773 35.602C106.158 35.602 106.837 35.3193 106.837 34.3862C106.837 33.849 106.3 33.3684 105.989 33.0291C105.225 32.2092 104.9 31.474 104.688 30.9368L99.3726 17.3371C99.0333 16.4606 98.694 15.8103 97.7327 15.8103C96.63 15.8103 93.633 17.0544 93.3502 18.4398C93.1806 19.3445 92.8979 20.6451 92.4455 21.8609L89.0526 30.7672Z" fill="#717171"/>
<path d="M115.266 25.0276C115.549 25.0276 115.846 25.4941 116.058 26.413C116.326 27.5864 116.496 28.2932 117.655 28.2932C119.394 28.2932 120.878 26.2575 120.878 24.3632C120.878 21.6489 119.465 20.73 117.867 20.73C115.846 20.73 114.729 22.596 114.361 22.596C114.135 22.596 114.022 22.3133 113.937 21.974C113.654 21.0127 113.287 20.73 112.58 20.73C112.015 20.73 111.76 21.041 109.951 21.8892C108.537 22.5395 107.378 22.6809 107.378 23.5856C107.378 24.0663 107.632 24.2642 107.943 24.4904C108.226 24.6883 108.848 25.1407 108.848 26.1585V30.3714C108.848 31.1065 108.791 32.0678 108.084 33.0574C107.83 33.3967 107.236 33.849 107.236 34.6124C107.236 35.1496 107.519 35.602 108.254 35.602C109.498 35.602 110.544 35.5172 111.675 35.5172C113.485 35.5172 114.474 35.602 115.407 35.602C116.369 35.602 116.708 35.1779 116.708 34.5559C116.708 33.7359 115.832 33.5663 115.323 33.0856C114.474 32.294 114.361 31.7285 114.361 30.3431V27.2612C114.361 26.0172 114.559 25.0276 115.266 25.0276Z" fill="#717171"/>
<path d="M129.719 24.8862C129.719 25.169 129.663 25.3952 129.55 25.6213C129.126 26.413 128.079 26.8371 127.542 26.8371C127.062 26.8371 126.835 26.4413 126.835 25.7627C126.835 24.66 127.429 23.5291 128.475 23.5291C129.239 23.5291 129.719 24.1228 129.719 24.8862ZM133.31 28.0246C134.187 27.6005 134.809 26.9502 134.809 25.8193C134.809 24.1511 133.508 20.73 129.069 20.73C124.376 20.73 121.294 24.3773 121.294 28.6184C121.294 32.8595 123.951 35.8565 128.617 35.8565C132.603 35.8565 135.063 33.0856 135.063 30.9651C135.063 30.3148 134.865 30.0038 134.526 30.0038C134.356 30.0038 134.13 30.0886 133.904 30.23C133.197 30.6258 132.207 31.3892 130.483 31.3892C128.504 31.3892 127.655 30.2865 127.655 29.5231C127.655 29.3252 127.768 29.2687 128.051 29.2404C129.154 29.1273 131.783 28.7597 133.31 28.0246Z" fill="#717171"/>
<path d="M143.9 30.3431C143.9 31.2196 143.617 32.2657 142.486 32.2657C141.779 32.2657 141.525 31.7285 141.525 31.2196C141.525 30.3714 142.231 29.7776 142.853 29.4383C143.221 29.2404 143.532 29.1273 143.673 29.1273C143.786 29.1273 143.9 29.2687 143.9 30.3431ZM139.913 27.6853C137.481 28.6749 136.011 30.0038 136.011 32.2657C136.011 34.669 137.849 35.8565 140.224 35.8565C141.496 35.8565 142.91 35.2627 143.73 34.5276C143.843 34.4145 143.956 34.3014 144.097 34.3014C144.211 34.3014 144.295 34.4428 144.38 34.5559C144.889 35.291 145.681 35.7999 147.236 35.7999C149.3 35.7999 150.968 34.4145 150.968 32.3788C150.968 32.0678 150.855 31.7285 150.629 31.7285C150.431 31.7285 150.261 31.7851 150.063 31.7851C149.413 31.7851 149.272 31.163 149.272 30.7106C149.272 28.9859 149.413 28.0529 149.413 26.3282C149.413 21.8326 145.879 20.7017 142.599 20.7017C138.669 20.7017 136.548 22.596 136.548 24.4338C136.548 26.0455 137.566 26.9502 138.895 26.9502C140.111 26.9502 140.535 26.2151 140.818 25.3103C141.298 23.8118 141.892 23.1332 142.599 23.1332C143.362 23.1332 143.843 23.8118 143.843 24.8297C143.843 25.8758 143.645 26.2716 143.419 26.4413C142.938 26.8371 141.525 27.035 139.913 27.6853Z" fill="#717171"/>
<path d="M159.472 30.3431C159.472 31.2196 159.19 32.2657 158.059 32.2657C157.352 32.2657 157.097 31.7285 157.097 31.2196C157.097 30.3714 157.804 29.7776 158.426 29.4383C158.794 29.2404 159.105 29.1273 159.246 29.1273C159.359 29.1273 159.472 29.2687 159.472 30.3431ZM155.486 27.6853C153.054 28.6749 151.584 30.0038 151.584 32.2657C151.584 34.669 153.422 35.8565 155.797 35.8565C157.069 35.8565 158.483 35.2627 159.303 34.5276C159.416 34.4145 159.529 34.3014 159.67 34.3014C159.783 34.3014 159.868 34.4428 159.953 34.5559C160.462 35.291 161.254 35.7999 162.809 35.7999C164.873 35.7999 166.541 34.4145 166.541 32.3788C166.541 32.0678 166.428 31.7285 166.201 31.7285C166.004 31.7285 165.834 31.7851 165.636 31.7851C164.986 31.7851 164.844 31.163 164.844 30.7106C164.844 28.9859 164.986 28.0529 164.986 26.3282C164.986 21.8326 161.451 20.7017 158.172 20.7017C154.242 20.7017 152.121 22.596 152.121 24.4338C152.121 26.0455 153.139 26.9502 154.468 26.9502C155.684 26.9502 156.108 26.2151 156.39 25.3103C156.871 23.8118 157.465 23.1332 158.172 23.1332C158.935 23.1332 159.416 23.8118 159.416 24.8297C159.416 25.8758 159.218 26.2716 158.992 26.4413C158.511 26.8371 157.097 27.035 155.486 27.6853Z" fill="#717171"/>
</svg>
