<svg width="137" height="34" viewBox="0 0 137 34" fill="none" xmlns="http://www.w3.org/2000/svg">
<path d="M43.1465 2.46844L43.1511 2.47308V15.056C43.1511 18.6136 42.1812 19.041 41.0062 19.1921V19.2909H45.7826V19.1921C44.3184 18.9978 43.6376 17.5105 43.6376 14.5144V3.07784L43.6718 3.1195L57.4633 20.0407L57.4944 20.0083L57.4929 19.9682C57.4416 19.0193 57.3638 17.5846 57.3638 14.8122V4.59439C57.3638 1.03675 58.3337 0.609401 59.5088 0.458209V0.359468H54.7059V0.458209C56.1701 0.654142 56.8509 2.14137 56.8509 5.13744V15.0297L56.8167 14.9865L46.1074 1.81585C45.6334 1.25582 45.3925 0.817677 45.2168 0.496779C45.1904 0.448953 45.1655 0.402666 45.1407 0.359468H40.8212C41.5859 0.766761 42.2247 1.34839 43.1465 2.46844Z" fill="#717171"/>
<path d="M71.7476 19.6889C74.4692 19.6889 76.9514 18.7509 78.7389 17.0492C80.6258 15.2503 81.6237 12.7588 81.6237 9.84446C81.6237 6.92861 80.6258 4.43702 78.7389 2.63969C76.9514 0.936465 74.4692 0 71.7476 0C69.0368 0 66.5623 0.938007 64.7795 2.63969C62.8941 4.43857 61.8978 6.93015 61.8978 9.84446C61.8978 12.7588 62.8941 15.2503 64.7795 17.0492C66.5623 18.7509 69.0368 19.6889 71.7476 19.6889ZM64.5386 10.3027C65.0438 6.95021 66.8468 3.78906 69.2436 2.04881C70.8088 0.913327 72.5247 0.456667 74.208 0.726652C77.7566 1.29594 79.6761 4.7641 78.9845 9.35694C78.4778 12.7248 76.6716 15.8983 74.2702 17.6386C72.9988 18.5596 71.6279 19.0348 70.2554 19.0348C69.9399 19.0348 69.6244 19.0101 69.3104 18.9592C65.7634 18.3899 63.8454 14.9109 64.5386 10.3027Z" fill="#717171"/>
<path d="M96.5732 19.2199V19.2924H101.51V19.2184C100.823 19.0641 100.412 18.8172 100.22 18.4439C99.9631 17.9456 100.072 17.2081 100.572 16.0541L101.94 13.0889H110.896L110.901 13.0997L112.258 16.0526C112.828 17.5337 113.037 18.268 112.761 18.7046C112.576 18.9993 112.179 19.1489 111.389 19.2199V19.2909H118.093V19.2184C116.814 19.0348 115.741 17.9811 114.715 15.9076L107.377 0.0308598L100.03 16.0418C98.8922 18.5889 97.6456 19.0811 96.5732 19.2199ZM102.144 12.6477L106.429 3.36017L106.446 3.39874L110.707 12.6755H102.131L102.144 12.6477Z" fill="#717171"/>
<path d="M38.8037 9.70869C38.8037 7.28653 37.8369 4.86901 36.152 3.07939C35.2552 2.12595 34.1889 1.3777 32.9843 0.856239C31.6834 0.293126 30.2472 0.00771004 28.7162 0.00771004C25.9557 0.00771004 23.4082 1.03365 21.5399 2.89887C19.6964 4.73786 18.6815 7.21556 18.6815 9.87222C18.6815 11.3456 18.9675 12.731 19.5301 13.9899C20.0555 15.1655 20.8109 16.2069 21.773 17.0847C23.604 18.7524 26.1049 19.709 28.6338 19.709C34.5262 19.7074 38.8037 15.5018 38.8037 9.70869ZM33.8625 16.23C32.6082 18.3004 30.8098 19.3958 28.6602 19.3958C24.4682 19.3958 21.9626 14.5669 21.9626 9.89846C21.9626 7.18009 22.6854 4.71319 23.9957 2.95442C25.2485 1.27279 26.924 0.347126 28.7146 0.347126C31.329 0.347126 32.933 2.04264 33.819 3.46508C34.9008 5.20379 35.5225 7.49943 35.5225 9.76423C35.521 12.1324 34.9164 14.4898 33.8625 16.23Z" fill="#717171"/>
<path d="M90.4149 17.7635C90.4149 18.8111 89.2881 19.0703 88.0664 19.1906V19.2893H95.2489V19.1906C94.4531 19.1119 93.9324 18.9916 93.564 18.8003C93.1179 18.5704 92.9019 18.231 92.9019 17.7635V11.1188L92.905 11.1142L98.0917 3.09326C99.2917 1.24039 100.193 0.772929 101.754 0.431976V0.357925H96.4068V0.427352C97.1591 0.441237 97.6503 0.638707 97.8648 1.01206C98.1213 1.46101 97.9798 2.15834 97.4436 3.08401L92.5941 10.6436L92.5786 10.6174L87.7741 2.81402L87.4042 2.19537C87.1695 1.8035 87.1229 1.45638 87.2674 1.16325C87.4835 0.723558 88.1006 0.496777 88.6135 0.428895V0.354836L81.9812 0.356379V0.428895C82.0154 0.435066 82.0511 0.441239 82.0853 0.44741C82.9449 0.598602 83.6226 0.717389 84.8722 2.79242L90.4165 11.6572V17.7635H90.4149Z" fill="#717171"/>
<path d="M1.86578 28.7391H2.42986V31.8508C2.42986 31.983 2.41953 32.1256 2.39887 32.2785C2.3782 32.4314 2.32655 32.5739 2.2439 32.7062C2.16538 32.8343 2.04348 32.9417 1.87818 33.0285C1.71289 33.1111 1.48767 33.1525 1.20253 33.1525C0.805821 33.1525 0.508287 33.0657 0.309931 32.8921C0.111575 32.7186 0.00826482 32.4727 0 32.1545H0.53928C0.53928 32.2206 0.549611 32.2971 0.570273 32.3839C0.595068 32.4665 0.632259 32.545 0.681848 32.6194C0.73557 32.6938 0.805821 32.7558 0.892601 32.8054C0.983514 32.8549 1.09716 32.8797 1.23353 32.8797C1.39056 32.8797 1.5104 32.8467 1.59305 32.7806C1.67983 32.7103 1.74388 32.6256 1.7852 32.5264C1.82653 32.4231 1.84926 32.3136 1.85339 32.1979C1.86165 32.078 1.86578 31.9685 1.86578 31.8694V28.7391Z" fill="#717171"/>
<path d="M5.03614 30.9086C5.03614 30.673 5.07953 30.423 5.16631 30.1585C5.25722 29.8941 5.39772 29.6523 5.58781 29.4333C5.77791 29.2101 6.01965 29.0263 6.31305 28.8816C6.60645 28.737 6.95771 28.6647 7.36682 28.6647C7.78006 28.6647 8.13751 28.7391 8.43918 28.8878C8.74498 29.0325 8.99706 29.2164 9.19541 29.4395C9.39377 29.6627 9.54047 29.9065 9.63551 30.1709C9.73056 30.4313 9.77808 30.6772 9.77808 30.9086C9.77808 31.0615 9.75535 31.2226 9.7099 31.3921C9.66857 31.5615 9.60452 31.7309 9.51774 31.9004C9.43509 32.0656 9.32765 32.2247 9.19541 32.3776C9.06317 32.5264 8.90614 32.6587 8.72432 32.7744C8.54662 32.8901 8.34413 32.983 8.11685 33.0533C7.8937 33.1194 7.64369 33.1525 7.36682 33.1525C6.95771 33.1525 6.60645 33.0802 6.31305 32.9355C6.01965 32.7868 5.77791 32.6008 5.58781 32.3776C5.39772 32.1545 5.25722 31.9127 5.16631 31.6524C5.07953 31.3879 5.03614 31.14 5.03614 30.9086ZM5.6436 30.9086C5.6436 31.1978 5.68699 31.4644 5.77377 31.7082C5.86469 31.9479 5.98659 32.1545 6.13949 32.3281C6.29652 32.5016 6.48041 32.638 6.69117 32.7372C6.90192 32.8322 7.13127 32.8797 7.37922 32.8797C7.62303 32.8797 7.85238 32.8322 8.06726 32.7372C8.28628 32.638 8.47637 32.5016 8.63754 32.3281C8.80283 32.1545 8.933 31.9479 9.02805 31.7082C9.12309 31.4644 9.17062 31.1978 9.17062 30.9086C9.17062 30.6193 9.12309 30.3548 9.02805 30.1152C8.933 29.8713 8.80283 29.6626 8.63754 29.4891C8.47637 29.3155 8.28628 29.1812 8.06726 29.0862C7.85238 28.987 7.62303 28.9374 7.37922 28.9374C7.13127 28.9374 6.90192 28.987 6.69117 29.0862C6.48041 29.1812 6.29652 29.3155 6.13949 29.4891C5.98659 29.6626 5.86469 29.8713 5.77377 30.1152C5.68699 30.3548 5.6436 30.6193 5.6436 30.9086Z" fill="#717171"/>
<path d="M12.135 28.7391H12.6991V31.5718C12.6991 31.6545 12.7012 31.7371 12.7053 31.8198C12.7094 31.9024 12.7239 31.9851 12.7487 32.0677C12.7735 32.1462 12.8107 32.2268 12.8602 32.3095C12.9098 32.3921 12.9822 32.4748 13.0772 32.5574C13.197 32.6649 13.3231 32.7454 13.4553 32.7992C13.5917 32.8529 13.7467 32.8797 13.9202 32.8797C14.1227 32.8797 14.3169 32.8508 14.5029 32.7929C14.6888 32.7351 14.8562 32.6256 15.005 32.4644C15.0876 32.3735 15.1496 32.2826 15.1909 32.1917C15.2364 32.1008 15.2694 32.0099 15.2901 31.919C15.3108 31.8239 15.3232 31.7309 15.3273 31.64C15.3314 31.545 15.3335 31.452 15.3335 31.3611V28.7391H15.6062V31.5656C15.6062 31.7846 15.5711 31.9913 15.5009 32.1855C15.4306 32.3756 15.3252 32.5429 15.1847 32.6876C15.0484 32.8322 14.8769 32.9459 14.6702 33.0285C14.4678 33.1111 14.2343 33.1525 13.9698 33.1525C13.5483 33.1525 13.2156 33.0946 12.9718 32.9789C12.728 32.8591 12.5441 32.7124 12.4201 32.5388C12.2962 32.3611 12.2177 32.171 12.1846 31.9685C12.1515 31.7619 12.135 31.5739 12.135 31.4045V28.7391Z" fill="#717171"/>
<path d="M18.3939 28.7391H19.801C20.0779 28.7391 20.3072 28.7783 20.4891 28.8568C20.6709 28.9312 20.8134 29.0263 20.9168 29.142C21.0242 29.2535 21.0986 29.3754 21.1399 29.5077C21.1854 29.6399 21.2081 29.7618 21.2081 29.8734C21.2081 29.9974 21.1874 30.1255 21.1461 30.2577C21.1048 30.3858 21.0387 30.5057 20.9478 30.6172C20.8568 30.7288 20.7391 30.8218 20.5944 30.8962C20.4539 30.9706 20.2845 31.014 20.0861 31.0263V31.0511L20.1481 31.0821C20.1977 31.1069 20.239 31.1379 20.2721 31.1751C20.3093 31.2123 20.3548 31.2722 20.4085 31.3549C20.4663 31.4375 20.5428 31.5553 20.6378 31.7082C20.7329 31.857 20.8672 32.0574 21.0407 32.3095C21.0986 32.3962 21.1544 32.4748 21.2081 32.545C21.2618 32.6111 21.3176 32.669 21.3755 32.7186C21.4333 32.764 21.4953 32.7992 21.5614 32.8239C21.6275 32.8487 21.704 32.8611 21.7908 32.8611C21.8114 32.8611 21.8321 32.8611 21.8528 32.8611C21.8734 32.857 21.8941 32.8529 21.9147 32.8487V33.0781C21.8569 33.1111 21.799 33.1318 21.7412 33.1401C21.6833 33.1483 21.6089 33.1525 21.518 33.1525C21.3941 33.1525 21.2866 33.1359 21.1957 33.1029C21.1089 33.0698 21.0304 33.0264 20.9602 32.9727C20.8899 32.9149 20.8238 32.8467 20.7618 32.7682C20.7039 32.6896 20.644 32.6029 20.582 32.5078L20.0923 31.7826C20.018 31.6669 19.9539 31.5698 19.9002 31.4912C19.8465 31.4127 19.7886 31.3487 19.7266 31.2991C19.6646 31.2495 19.5944 31.2144 19.5159 31.1937C19.4415 31.1731 19.3464 31.1627 19.2307 31.1627H18.958V33.0781H18.3939V28.7391ZM18.958 29.0118V30.8838H19.5965C19.7617 30.8838 19.9064 30.8549 20.0304 30.797C20.1585 30.7391 20.2659 30.6648 20.3527 30.5739C20.4395 30.4788 20.5035 30.3755 20.5448 30.2639C20.5903 30.1482 20.613 30.0346 20.613 29.923C20.613 29.7908 20.5882 29.6688 20.5386 29.5573C20.4932 29.4457 20.425 29.3507 20.3341 29.2721C20.2432 29.1895 20.1337 29.1254 20.0056 29.08C19.8816 29.0345 19.7411 29.0118 19.5841 29.0118H18.958Z" fill="#717171"/>
<path d="M27.8888 28.7391H28.1739V33.1525H28.1429L24.7027 29.7618H24.6779V33.0781H24.3928V28.6647H24.4238L27.864 32.0553H27.8888V28.7391Z" fill="#717171"/>
<path d="M31.2088 28.7391H34.0106V29.08H31.7729V30.6358H33.6945V30.921H31.7729V32.7372H34.0106V33.0781H31.2088V28.7391Z" fill="#717171"/>
<path d="M35.9295 28.7391H36.5679L37.8325 31.0263H37.8573L39.1838 28.7391H39.5185L37.9936 31.3797V33.0781H37.4295V31.4355L35.9295 28.7391Z" fill="#717171"/>
<path d="M45.7126 33.0781V28.7391H47.2623C47.4772 28.7391 47.6631 28.7721 47.8202 28.8382C47.9813 28.9002 48.1115 28.9808 48.2107 29.08C48.314 29.1792 48.3904 29.2887 48.44 29.4085C48.4896 29.5284 48.5144 29.6461 48.5144 29.7618C48.5144 29.8941 48.4855 30.0201 48.4276 30.1399C48.3698 30.2556 48.2913 30.359 48.1921 30.4499C48.097 30.5367 47.9855 30.609 47.8574 30.6668C47.7293 30.7205 47.5929 30.7474 47.4483 30.7474V30.7722C47.5392 30.7763 47.659 30.7908 47.8078 30.8156C47.9565 30.8404 48.1012 30.89 48.2417 30.9644C48.3822 31.0387 48.502 31.1462 48.6012 31.2867C48.7045 31.4272 48.7562 31.6152 48.7562 31.8508C48.7562 31.9995 48.7293 32.1483 48.6756 32.2971C48.626 32.4417 48.5433 32.5719 48.4276 32.6876C48.3119 32.8033 48.159 32.8983 47.9689 32.9727C47.7789 33.043 47.5454 33.0781 47.2685 33.0781H45.7126ZM46.2767 32.8054H47.1755C47.3078 32.8054 47.4317 32.7868 47.5474 32.7496C47.6673 32.7082 47.7706 32.6483 47.8574 32.5698C47.9441 32.4913 48.0123 32.3962 48.0619 32.2847C48.1156 32.1731 48.1425 32.045 48.1425 31.9004C48.1425 31.7681 48.1177 31.6421 48.0681 31.5222C48.0227 31.4024 47.9503 31.297 47.8512 31.2061C47.7561 31.1152 47.6342 31.0429 47.4854 30.9892C47.3367 30.9354 47.1611 30.9086 46.9586 30.9086H46.2767V32.8054ZM46.2767 30.6358H47.0206C47.1445 30.6358 47.2602 30.6152 47.3677 30.5739C47.4793 30.5325 47.5764 30.4747 47.659 30.4003C47.7458 30.3259 47.8119 30.2371 47.8574 30.1337C47.907 30.0304 47.9317 29.9189 47.9317 29.799C47.9317 29.704 47.9152 29.6089 47.8822 29.5139C47.8491 29.4188 47.7954 29.3341 47.721 29.2597C47.6507 29.1854 47.5578 29.1254 47.4421 29.08C47.3305 29.0345 47.1941 29.0118 47.033 29.0118H46.2767V30.6358Z" fill="#717171"/>
<path d="M51.3604 28.7391H54.1622V29.08H51.9245V30.6358H53.8461V30.921H51.9245V32.7372H54.1622V33.0781H51.3604V28.7391Z" fill="#717171"/>
<path d="M56.081 28.7391H56.7195L57.984 31.0263H58.0088L59.3353 28.7391H59.67L58.1452 31.3797V33.0781H57.5811V31.4355L56.081 28.7391Z" fill="#717171"/>
<path d="M61.7136 30.9086C61.7136 30.673 61.7569 30.423 61.8437 30.1585C61.9346 29.8941 62.0751 29.6523 62.2652 29.4333C62.4553 29.2101 62.6971 29.0263 62.9905 28.8816C63.2839 28.737 63.6351 28.6647 64.0442 28.6647C64.4575 28.6647 64.8149 28.7391 65.1166 28.8878C65.4224 29.0325 65.6745 29.2164 65.8728 29.4395C66.0712 29.6627 66.2179 29.9065 66.3129 30.1709C66.408 30.4313 66.4555 30.6772 66.4555 30.9086C66.4555 31.0615 66.4328 31.2226 66.3873 31.3921C66.346 31.5615 66.2819 31.7309 66.1952 31.9004C66.1125 32.0656 66.0051 32.2247 65.8728 32.3776C65.7406 32.5264 65.5836 32.6587 65.4017 32.7744C65.224 32.8901 65.0216 32.983 64.7943 33.0533C64.5711 33.1194 64.3211 33.1525 64.0442 33.1525C63.6351 33.1525 63.2839 33.0802 62.9905 32.9355C62.6971 32.7868 62.4553 32.6008 62.2652 32.3776C62.0751 32.1545 61.9346 31.9127 61.8437 31.6524C61.7569 31.3879 61.7136 31.14 61.7136 30.9086ZM62.321 30.9086C62.321 31.1978 62.3644 31.4644 62.4512 31.7082C62.5421 31.9479 62.664 32.1545 62.8169 32.3281C62.9739 32.5016 63.1578 32.638 63.3686 32.7372C63.5793 32.8322 63.8087 32.8797 64.0566 32.8797C64.3004 32.8797 64.5298 32.8322 64.7447 32.7372C64.9637 32.638 65.1538 32.5016 65.315 32.3281C65.4803 32.1545 65.6104 31.9479 65.7055 31.7082C65.8005 31.4644 65.848 31.1978 65.848 30.9086C65.848 30.6193 65.8005 30.3548 65.7055 30.1152C65.6104 29.8713 65.4803 29.6626 65.315 29.4891C65.1538 29.3155 64.9637 29.1812 64.7447 29.0862C64.5298 28.987 64.3004 28.9374 64.0566 28.9374C63.8087 28.9374 63.5793 28.987 63.3686 29.0862C63.1578 29.1812 62.9739 29.3155 62.8169 29.4891C62.664 29.6626 62.5421 29.8713 62.4512 30.1152C62.3644 30.3548 62.321 30.6193 62.321 30.9086Z" fill="#717171"/>
<path d="M72.5564 28.7391H72.8415V33.1525H72.8105L69.3703 29.7618H69.3455V33.0781H69.0604V28.6647H69.0914L72.5316 32.0553H72.5564V28.7391Z" fill="#717171"/>
<path d="M75.9384 33.0781V28.7391H77.3641C77.7071 28.7391 78.0212 28.7948 78.3063 28.9064C78.5914 29.0139 78.8352 29.1647 79.0377 29.3589C79.2443 29.549 79.4035 29.7763 79.515 30.0408C79.6307 30.3052 79.6886 30.5904 79.6886 30.8962C79.6886 31.2144 79.6287 31.5078 79.5088 31.7764C79.3931 32.0409 79.232 32.2702 79.0253 32.4644C78.8228 32.6587 78.5852 32.8095 78.3125 32.9169C78.0398 33.0244 77.7484 33.0781 77.4385 33.0781H75.9384ZM76.5025 32.8054H77.1843C77.5232 32.8054 77.8104 32.7496 78.046 32.638C78.2856 32.5223 78.4819 32.3735 78.6348 32.1917C78.7877 32.0099 78.8993 31.8074 78.9695 31.5842C79.0398 31.3569 79.0749 31.1317 79.0749 30.9086C79.0749 30.6606 79.0336 30.423 78.951 30.1957C78.8683 29.9643 78.7464 29.7618 78.5852 29.5883C78.4282 29.4106 78.2319 29.2701 77.9964 29.1668C77.7608 29.0634 77.4901 29.0118 77.1843 29.0118H76.5025V32.8054Z" fill="#717171"/>
<path d="M89.5336 32.2785L89.7196 32.4458C89.6658 32.5078 89.5873 32.5801 89.484 32.6628C89.3807 32.7454 89.2505 32.824 89.0935 32.8983C88.9406 32.9686 88.7588 33.0285 88.548 33.0781C88.3414 33.1277 88.1058 33.1525 87.8414 33.1525C87.424 33.1525 87.0645 33.0884 86.7628 32.9603C86.4611 32.8281 86.2132 32.6566 86.019 32.4458C85.8248 32.2309 85.6801 31.9871 85.5851 31.7144C85.4942 31.4375 85.4487 31.1545 85.4487 30.8652C85.4487 30.5305 85.5066 30.2288 85.6223 29.9602C85.738 29.6874 85.9012 29.456 86.112 29.2659C86.3227 29.0717 86.5748 28.9229 86.8682 28.8196C87.1657 28.7163 87.4942 28.6647 87.8538 28.6647C88.1017 28.6647 88.3228 28.6895 88.517 28.7391C88.7112 28.7886 88.8807 28.8568 89.0253 28.9436C89.1699 29.0304 89.2898 29.1337 89.3848 29.2535C89.484 29.3734 89.5646 29.5036 89.6266 29.6441H89.1679C89.139 29.5573 89.0873 29.4726 89.0129 29.3899C88.9427 29.3031 88.8497 29.2267 88.734 29.1606C88.6224 29.0944 88.4922 29.0407 88.3435 28.9994C88.1988 28.9581 88.0377 28.9374 87.86 28.9374C87.5996 28.9374 87.3579 28.9849 87.1347 29.08C86.9157 29.175 86.7256 29.3073 86.5645 29.4767C86.4033 29.6461 86.2773 29.8486 86.1863 30.0842C86.0996 30.3156 86.0562 30.5718 86.0562 30.8528C86.0562 31.1173 86.0975 31.3714 86.1801 31.6152C86.2669 31.859 86.393 32.0739 86.5583 32.2599C86.7235 32.4458 86.9302 32.5946 87.1781 32.7062C87.4261 32.8177 87.7112 32.8735 88.0335 32.8735C88.6121 32.8735 89.1121 32.6752 89.5336 32.2785Z" fill="#717171"/>
<path d="M91.7018 30.9086C91.7018 30.673 91.7452 30.423 91.832 30.1585C91.9229 29.8941 92.0634 29.6523 92.2535 29.4333C92.4436 29.2101 92.6853 29.0263 92.9787 28.8816C93.2721 28.737 93.6234 28.6647 94.0325 28.6647C94.4457 28.6647 94.8032 28.7391 95.1048 28.8878C95.4106 29.0325 95.6627 29.2164 95.8611 29.4395C96.0594 29.6627 96.2061 29.9065 96.3012 30.1709C96.3962 30.4313 96.4438 30.6772 96.4438 30.9086C96.4438 31.0615 96.421 31.2226 96.3756 31.3921C96.3342 31.5615 96.2702 31.7309 96.1834 31.9004C96.1008 32.0656 95.9933 32.2247 95.8611 32.3776C95.7288 32.5264 95.5718 32.6587 95.39 32.7744C95.2123 32.8901 95.0098 32.983 94.7825 33.0533C94.5594 33.1194 94.3094 33.1525 94.0325 33.1525C93.6234 33.1525 93.2721 33.0802 92.9787 32.9355C92.6853 32.7868 92.4436 32.6008 92.2535 32.3776C92.0634 32.1545 91.9229 31.9127 91.832 31.6524C91.7452 31.3879 91.7018 31.14 91.7018 30.9086ZM92.3093 30.9086C92.3093 31.1978 92.3527 31.4644 92.4394 31.7082C92.5304 31.9479 92.6523 32.1545 92.8052 32.3281C92.9622 32.5016 93.1461 32.638 93.3568 32.7372C93.5676 32.8322 93.7969 32.8797 94.0449 32.8797C94.2887 32.8797 94.518 32.8322 94.7329 32.7372C94.952 32.638 95.142 32.5016 95.3032 32.3281C95.4685 32.1545 95.5987 31.9479 95.6937 31.7082C95.7888 31.4644 95.8363 31.1978 95.8363 30.9086C95.8363 30.6193 95.7888 30.3548 95.6937 30.1152C95.5987 29.8713 95.4685 29.6626 95.3032 29.4891C95.142 29.3155 94.952 29.1812 94.7329 29.0862C94.518 28.987 94.2887 28.9374 94.0449 28.9374C93.7969 28.9374 93.5676 28.987 93.3568 29.0862C93.1461 29.1812 92.9622 29.3155 92.8052 29.4891C92.6523 29.6626 92.5304 29.8713 92.4394 30.1152C92.3527 30.3548 92.3093 30.6193 92.3093 30.9086Z" fill="#717171"/>
<path d="M98.5341 31.9809H98.9556C98.9598 32.0512 98.9763 32.138 99.0052 32.2413C99.0342 32.3405 99.09 32.4376 99.1726 32.5326C99.2552 32.6277 99.3751 32.7103 99.5321 32.7806C99.6892 32.8467 99.8978 32.8797 100.158 32.8797C100.485 32.8797 100.745 32.8178 100.939 32.6938C101.138 32.5698 101.237 32.3735 101.237 32.1049C101.237 31.89 101.175 31.7185 101.051 31.5904C100.927 31.4623 100.77 31.3549 100.58 31.2681C100.394 31.1772 100.191 31.0966 99.9722 31.0263C99.7532 30.9561 99.5486 30.8714 99.3586 30.7722C99.1726 30.673 99.0176 30.5491 98.8937 30.4003C98.7697 30.2515 98.7077 30.0552 98.7077 29.8114C98.7077 29.6255 98.7449 29.4602 98.8193 29.3155C98.8978 29.1709 99.0011 29.0511 99.1292 28.956C99.2614 28.861 99.4123 28.7886 99.5817 28.7391C99.7553 28.6895 99.9371 28.6647 100.127 28.6647C100.309 28.6647 100.483 28.6874 100.648 28.7329C100.817 28.7742 100.968 28.8382 101.1 28.925C101.233 29.0077 101.342 29.111 101.429 29.2349C101.516 29.3548 101.571 29.4912 101.596 29.6441H101.175C101.142 29.4002 101.03 29.2226 100.84 29.111C100.654 28.9953 100.427 28.9374 100.158 28.9374C99.997 28.9374 99.8544 28.9581 99.7305 28.9994C99.6065 29.0366 99.5011 29.0882 99.4143 29.1544C99.3317 29.2163 99.2676 29.2907 99.2222 29.3775C99.1809 29.4643 99.1602 29.5573 99.1602 29.6565C99.1602 29.8341 99.2243 29.9767 99.3524 30.0842C99.4805 30.1916 99.6396 30.2867 99.8296 30.3693C100.024 30.4519 100.233 30.5305 100.456 30.6048C100.683 30.6792 100.892 30.7722 101.082 30.8838C101.276 30.9912 101.437 31.1276 101.565 31.2929C101.693 31.454 101.757 31.6627 101.757 31.919C101.757 32.1049 101.72 32.2743 101.646 32.4272C101.571 32.5801 101.466 32.7103 101.33 32.8177C101.193 32.9252 101.028 33.0078 100.834 33.0657C100.644 33.1235 100.429 33.1525 100.189 33.1525C99.9536 33.1525 99.7367 33.1256 99.5383 33.0719C99.34 33.014 99.1664 32.9355 99.0176 32.8363C98.873 32.733 98.7573 32.6091 98.6705 32.4644C98.5879 32.3198 98.5424 32.1586 98.5341 31.9809Z" fill="#717171"/>
<path d="M104.894 28.7391L106.884 32.4644H106.908L108.917 28.7391H109.345V33.0781H108.78V29.5635H108.756L106.797 33.1525H106.685L104.77 29.5387H104.745V33.0781H104.472V28.7391H104.894Z" fill="#717171"/>
<path d="M112.384 28.7391H115.186V29.08H112.948V30.6358H114.87V30.921H112.948V32.7372H115.186V33.0781H112.384V28.7391Z" fill="#717171"/>
<path d="M119.268 33.0781H118.704V29.08H117.043V28.7391H120.929V29.08H119.268V33.0781Z" fill="#717171"/>
<path d="M123.595 28.7391H124.159V33.0781H123.595V28.7391Z" fill="#717171"/>
<path d="M131.096 32.2785L131.282 32.4458C131.228 32.5078 131.15 32.5801 131.046 32.6628C130.943 32.7454 130.813 32.824 130.656 32.8983C130.503 32.9686 130.321 33.0285 130.11 33.0781C129.904 33.1277 129.668 33.1525 129.404 33.1525C128.986 33.1525 128.627 33.0884 128.325 32.9603C128.023 32.8281 127.775 32.6566 127.581 32.4458C127.387 32.2309 127.242 31.9871 127.147 31.7144C127.056 31.4375 127.011 31.1545 127.011 30.8652C127.011 30.5305 127.069 30.2288 127.184 29.9602C127.3 29.6874 127.463 29.456 127.674 29.2659C127.885 29.0717 128.137 28.9229 128.43 28.8196C128.728 28.7163 129.056 28.6647 129.416 28.6647C129.664 28.6647 129.885 28.6895 130.079 28.7391C130.273 28.7886 130.443 28.8568 130.588 28.9436C130.732 29.0304 130.852 29.1337 130.947 29.2535C131.046 29.3734 131.127 29.5036 131.189 29.6441H130.73C130.701 29.5573 130.65 29.4726 130.575 29.3899C130.505 29.3031 130.412 29.2267 130.296 29.1606C130.185 29.0944 130.054 29.0407 129.906 28.9994C129.761 28.9581 129.6 28.9374 129.422 28.9374C129.162 28.9374 128.92 28.9849 128.697 29.08C128.478 29.175 128.288 29.3073 128.127 29.4767C127.966 29.6461 127.839 29.8486 127.749 30.0842C127.662 30.3156 127.618 30.5718 127.618 30.8528C127.618 31.1173 127.66 31.3714 127.742 31.6152C127.829 31.859 127.955 32.0739 128.12 32.2599C128.286 32.4458 128.492 32.5946 128.74 32.7062C128.988 32.8177 129.273 32.8735 129.596 32.8735C130.174 32.8735 130.674 32.6752 131.096 32.2785Z" fill="#717171"/>
<path d="M133.183 31.9809H133.605C133.609 32.0512 133.626 32.138 133.655 32.2413C133.683 32.3405 133.739 32.4376 133.822 32.5326C133.905 32.6277 134.024 32.7103 134.181 32.7806C134.338 32.8467 134.547 32.8797 134.807 32.8797C135.134 32.8797 135.394 32.8178 135.589 32.6938C135.787 32.5698 135.886 32.3735 135.886 32.1049C135.886 31.89 135.824 31.7185 135.7 31.5904C135.576 31.4623 135.419 31.3549 135.229 31.2681C135.043 31.1772 134.841 31.0966 134.622 31.0263C134.403 30.9561 134.198 30.8714 134.008 30.7722C133.822 30.673 133.667 30.5491 133.543 30.4003C133.419 30.2515 133.357 30.0552 133.357 29.8114C133.357 29.6255 133.394 29.4602 133.469 29.3155C133.547 29.1709 133.65 29.0511 133.779 28.956C133.911 28.861 134.062 28.7886 134.231 28.7391C134.405 28.6895 134.586 28.6647 134.777 28.6647C134.958 28.6647 135.132 28.6874 135.297 28.7329C135.467 28.7742 135.617 28.8382 135.75 28.925C135.882 29.0077 135.991 29.111 136.078 29.2349C136.165 29.3548 136.221 29.4912 136.246 29.6441H135.824C135.791 29.4002 135.679 29.2226 135.489 29.111C135.303 28.9953 135.076 28.9374 134.807 28.9374C134.646 28.9374 134.504 28.9581 134.38 28.9994C134.256 29.0366 134.15 29.0882 134.064 29.1544C133.981 29.2163 133.917 29.2907 133.872 29.3775C133.83 29.4643 133.81 29.5573 133.81 29.6565C133.81 29.8341 133.874 29.9767 134.002 30.0842C134.13 30.1916 134.289 30.2867 134.479 30.3693C134.673 30.4519 134.882 30.5305 135.105 30.6048C135.332 30.6792 135.541 30.7722 135.731 30.8838C135.925 30.9912 136.086 31.1276 136.215 31.2929C136.343 31.454 136.407 31.6627 136.407 31.919C136.407 32.1049 136.37 32.2743 136.295 32.4272C136.221 32.5801 136.115 32.7103 135.979 32.8177C135.843 32.9252 135.677 33.0078 135.483 33.0657C135.293 33.1235 135.078 33.1525 134.839 33.1525C134.603 33.1525 134.386 33.1256 134.188 33.0719C133.989 33.014 133.816 32.9355 133.667 32.8363C133.522 32.733 133.407 32.6091 133.32 32.4644C133.237 32.3198 133.192 32.1586 133.183 31.9809Z" fill="#717171"/>
</svg>
