<svg width="66" height="71" viewBox="0 0 66 71" fill="none" xmlns="http://www.w3.org/2000/svg">
<g clip-path="url(#clip0_86_44)">
<path d="M22.5091 0H16.0453C11.7401 0 8.25 3.49006 8.25 7.79526V14.2591L22.5091 0Z" fill="#717171"/>
<path d="M8.25 26.124V34.9539L30.17 13.034C31.8082 11.3957 34.4642 11.3957 36.1024 13.034C37.7407 14.6722 37.7407 17.3282 36.1024 18.9664L8.25 46.8189V50.6538C8.25 51.9409 8.56198 53.1553 9.11444 54.2252L24.0176 39.3221C25.6558 37.6838 28.3119 37.6838 29.9501 39.3221C31.5883 40.9603 31.5883 43.6163 29.9501 45.2545L16.7556 58.449H43.2155C51.2426 58.449 57.7499 51.9418 57.7499 43.9147V43.4533C57.7499 35.9811 51.6925 29.9237 44.2202 29.9237H40.6906C40.5361 29.9237 40.4109 29.7985 40.4109 29.644C40.4109 29.4896 40.5361 29.3643 40.6906 29.3643H44.2202C51.6925 29.3643 57.7499 23.3069 57.7499 15.8347V14.9618C57.7499 6.69864 51.0512 0 42.788 0H34.374L8.25 26.124Z" fill="#717171"/>
</g>
<defs>
<clipPath id="clip0_86_44">
<rect width="66" height="70.8984" fill="white"/>
</clipPath>
</defs>
</svg>
