<svg width="62" height="56" viewBox="0 0 62 56" fill="none" xmlns="http://www.w3.org/2000/svg">
<path d="M19.0303 8.11523H10.5503V46.9851H19.0303V8.11523Z" fill="#717171"/>
<path d="M27.5098 46.9851H19.0298V54.2478H27.5098V46.9851Z" fill="#717171"/>
<path d="M19.035 46.9778L10.5623 46.9778L19.0351 54.2404L19.035 46.9778Z" fill="#717171"/>
<path d="M35.9893 46.9802H44.4692V8.1104H35.9893V46.9802Z" fill="#717171"/>
<path d="M27.5088 8.11035H35.9887V0.847617H27.5088V8.11035Z" fill="#717171"/>
<path d="M35.9835 8.11791L44.4563 8.11789L35.9835 0.855255L35.9835 8.11791Z" fill="#717171"/>
<path d="M0 23.0867L-1.01122e-07 31.5666L53.3547 31.5666L53.3547 23.0867L0 23.0867Z" fill="#717171"/>
<path d="M53.3545 14.6069L53.3545 23.0869L60.6172 23.0869L60.6172 14.6069L53.3545 14.6069Z" fill="#717171"/>
<path d="M53.3469 23.0809L53.347 31.5537L60.6096 23.0809L53.3469 23.0809Z" fill="#717171"/>
</svg>
