<svg width="448" height="448" viewBox="0 0 448 448" fill="none" xmlns="http://www.w3.org/2000/svg">
<rect width="448" height="448" fill="black"/>
<g clip-path="url(#clip0_819_21)">
<path d="M150.962 227.943L145.481 188.123H150.352L154.973 224.549H155.667L159.678 199.304H168.23L172.241 224.549H172.936L175.471 203.121H180.38L176.905 227.943H168.353L164.303 202.207H163.609L159.517 227.943H150.965H150.962Z" fill="white"/>
<path d="M191.143 228.517C189.726 228.517 188.443 228.265 187.297 227.761C186.15 227.258 185.243 226.528 184.574 225.572C183.906 224.616 183.573 223.443 183.573 222.052C183.573 220.66 183.906 219.542 184.574 218.615C185.243 217.688 186.163 216.984 187.336 216.506C188.508 216.028 189.845 215.789 191.347 215.789H197.199V214.562C197.199 213.5 196.872 212.634 196.217 211.966C195.561 211.297 194.541 210.965 193.149 210.965C191.757 210.965 190.756 211.284 190.061 211.927C189.367 212.57 188.908 213.393 188.692 214.401L184.355 212.97C184.681 211.908 185.207 210.939 185.931 210.067C186.654 209.195 187.613 208.491 188.815 207.958C190.016 207.425 191.489 207.16 193.233 207.16C195.878 207.16 197.958 207.822 199.472 209.143C200.987 210.467 201.743 212.382 201.743 214.892V222.83C201.743 223.647 202.124 224.057 202.889 224.057H204.607V227.945H201.294C200.312 227.945 199.508 227.7 198.878 227.209C198.251 226.718 197.938 226.05 197.938 225.204V225.123H197.244C197.079 225.504 196.795 225.969 196.385 226.515C195.975 227.061 195.355 227.532 194.525 227.926C193.691 228.32 192.567 228.52 191.15 228.52L191.143 228.517ZM191.922 224.671C193.475 224.671 194.744 224.228 195.726 223.34C196.708 222.452 197.199 221.26 197.199 219.759V219.348H191.634C190.623 219.348 189.806 219.568 189.18 220.004C188.553 220.44 188.24 221.083 188.24 221.929C188.24 222.775 188.566 223.408 189.222 223.912C189.877 224.419 190.775 224.667 191.922 224.667V224.671Z" fill="white"/>
<path d="M208.774 227.974V207.76H213.399V210.092H214.093C214.394 209.246 214.898 208.632 215.608 208.251C216.315 207.87 217.162 207.68 218.147 207.68H220.094V211.852H218.066C216.703 211.852 215.595 212.214 214.752 212.937C213.906 213.661 213.483 214.772 213.483 216.273L213.441 227.974H208.778H208.774Z" fill="white"/>
<path d="M232.387 228.518C229.768 228.518 227.614 227.946 225.922 226.8C224.229 225.653 223.206 223.977 222.854 221.768L227.191 220.664C227.381 221.7 227.724 222.517 228.215 223.118C228.705 223.719 229.313 224.142 230.036 224.387C230.759 224.633 231.544 224.755 232.387 224.755C233.669 224.755 234.632 224.523 235.271 224.061C235.911 223.599 236.233 223.011 236.233 222.301C236.233 221.59 235.927 221.019 235.313 220.664C234.699 220.308 233.766 220.008 232.51 219.762L231.241 219.559C229.849 219.288 228.583 218.913 227.436 218.435C226.29 217.957 225.369 217.305 224.675 216.472C223.981 215.638 223.632 214.582 223.632 213.3C223.632 211.337 224.362 209.822 225.821 208.759C227.281 207.697 229.196 207.164 231.57 207.164C233.944 207.164 235.704 207.668 237.177 208.679C238.649 209.69 239.605 211.04 240.041 212.729L235.704 214.04C235.484 212.893 235.009 212.083 234.273 211.605C233.537 211.127 232.636 210.888 231.573 210.888C230.511 210.888 229.642 211.078 229.057 211.459C228.47 211.84 228.179 212.386 228.179 213.097C228.179 213.807 228.479 214.337 229.08 214.692C229.681 215.047 230.485 215.306 231.496 215.47L232.765 215.716C234.263 215.987 235.623 216.342 236.837 216.778C238.052 217.214 239.011 217.841 239.721 218.661C240.432 219.478 240.784 220.586 240.784 221.975C240.784 224.074 240.028 225.692 238.514 226.822C236.999 227.953 234.961 228.521 232.397 228.521L232.387 228.518Z" fill="white"/>
<path d="M245.523 221.111V199.305H250.229V210.392H250.923C251.143 209.93 251.495 209.465 251.986 209C252.477 208.535 253.126 208.154 253.93 207.853C254.734 207.553 255.751 207.404 256.979 207.404C258.532 207.404 259.911 207.753 261.112 208.448C262.314 209.142 263.247 210.117 263.916 211.373C264.584 212.627 264.917 214.115 264.917 215.833V227.944H260.211V216.202C260.211 214.564 259.808 213.343 259.004 212.539C258.199 211.735 257.059 211.331 255.587 211.331C253.923 211.331 252.612 211.884 251.66 212.988C250.704 214.093 250.229 215.669 250.229 217.713V221.107H245.523V221.111Z" fill="white"/>
<path d="M273.015 205.152C272.169 205.152 271.439 204.874 270.826 204.312C270.212 203.753 269.905 203.011 269.905 202.084C269.905 201.157 270.212 200.414 270.826 199.855C271.439 199.297 272.169 199.016 273.015 199.016C273.916 199.016 274.659 199.297 275.244 199.855C275.831 200.414 276.122 201.157 276.122 202.084C276.122 203.011 275.828 203.753 275.244 204.312C274.656 204.871 273.913 205.152 273.015 205.152ZM270.684 227.943V207.729H275.389V227.943H270.684Z" fill="white"/>
<path d="M281.363 233.448V207.731H285.988V210.389H286.682C287.147 209.543 287.89 208.794 288.914 208.138C289.938 207.482 291.404 207.156 293.313 207.156C294.95 207.156 296.471 207.56 297.876 208.364C299.281 209.168 300.405 210.347 301.251 211.904C302.097 213.457 302.52 215.327 302.52 217.51V218.166C302.52 220.349 302.097 222.216 301.251 223.772C300.405 225.326 299.287 226.508 297.895 227.312C296.503 228.116 294.976 228.52 293.313 228.52C292.03 228.52 290.961 228.368 290.102 228.071C289.243 227.77 288.549 227.376 288.016 226.885C287.483 226.395 287.067 225.904 286.77 225.413H286.075V233.458H281.37L281.363 233.448ZM291.921 224.425C293.639 224.425 295.05 223.872 296.155 222.768C297.259 221.663 297.811 220.087 297.811 218.043V217.633C297.811 215.559 297.253 213.977 296.135 212.885C295.018 211.794 293.613 211.248 291.921 211.248C290.228 211.248 288.817 211.794 287.687 212.885C286.553 213.977 285.988 215.559 285.988 217.633V218.043C285.988 220.087 286.553 221.663 287.687 222.768C288.817 223.872 290.228 224.425 291.921 224.425Z" fill="white"/>
<path d="M164.942 259.876C162.759 259.876 160.831 259.488 159.152 258.71C157.476 257.932 156.158 256.808 155.202 255.335C154.246 253.863 153.771 252.064 153.771 249.935V248.873H158.642V249.935C158.642 251.818 159.213 253.223 160.36 254.15C161.506 255.077 163.034 255.542 164.942 255.542C166.851 255.542 168.34 255.148 169.322 254.357C170.303 253.565 170.794 252.542 170.794 251.289C170.794 250.442 170.562 249.755 170.1 249.222C169.635 248.689 168.96 248.259 168.075 247.933C167.187 247.607 166.118 247.294 164.862 246.993L163.634 246.748C161.752 246.312 160.121 245.76 158.745 245.091C157.366 244.423 156.31 243.557 155.574 242.495C154.837 241.432 154.469 240.04 154.469 238.322C154.469 236.604 154.879 235.131 155.696 233.904C156.513 232.677 157.673 231.737 159.174 231.081C160.673 230.426 162.433 230.1 164.452 230.1C166.47 230.1 168.269 230.442 169.851 231.123C171.434 231.805 172.68 232.829 173.594 234.191C174.508 235.554 174.964 237.259 174.964 239.307V240.657H170.094V239.307C170.094 238.135 169.861 237.195 169.399 236.484C168.934 235.774 168.282 235.257 167.436 234.928C166.59 234.602 165.595 234.437 164.448 234.437C162.756 234.437 161.474 234.763 160.602 235.419C159.73 236.074 159.294 237.001 159.294 238.203C159.294 238.968 159.491 239.614 159.888 240.147C160.282 240.68 160.87 241.116 161.648 241.455C162.427 241.797 163.402 242.088 164.574 242.333L165.802 242.621C167.765 243.057 169.483 243.609 170.956 244.277C172.429 244.946 173.581 245.824 174.415 246.916C175.248 248.007 175.661 249.425 175.661 251.172C175.661 252.92 175.219 254.405 174.331 255.713C173.443 257.021 172.202 258.045 170.607 258.781C169.012 259.517 167.122 259.886 164.939 259.886L164.942 259.876Z" fill="white"/>
<path d="M183.241 259.3C181.933 259.3 180.886 258.912 180.111 258.134C179.336 257.356 178.945 256.3 178.945 254.963V232.582H183.651V239.086H189.461V242.971H183.651V254.184C183.651 255.001 184.032 255.412 184.797 255.412H188.847V259.3H183.241Z" fill="white"/>
<path d="M201.982 259.63C200.429 259.63 199.05 259.281 197.848 258.586C196.647 257.889 195.72 256.91 195.068 255.641C194.412 254.372 194.086 252.893 194.086 251.201V239.09H198.749V250.832C198.749 252.47 199.15 253.684 199.957 254.475C200.761 255.267 201.901 255.661 203.374 255.661C205.037 255.661 206.355 255.115 207.324 254.023C208.293 252.932 208.777 251.362 208.777 249.318V227.941H213.441V259.3H208.858V256.478H208.163C207.808 257.214 207.162 257.924 206.219 258.606C205.28 259.287 203.865 259.63 201.985 259.63H201.982Z" fill="white"/>
<path d="M227.676 259.876C226.039 259.876 224.511 259.472 223.093 258.668C221.676 257.864 220.542 256.682 219.696 255.128C218.85 253.572 218.427 251.705 218.427 249.522V248.866C218.427 246.683 218.85 244.816 219.696 243.26C220.542 241.703 221.666 240.524 223.071 239.72C224.476 238.916 226.01 238.512 227.673 238.512C228.926 238.512 229.992 238.664 230.864 238.961C231.736 239.262 232.44 239.643 232.969 240.108C233.502 240.573 233.916 241.077 234.216 241.622H234.91V230.658H239.574V259.301H234.991V256.643H234.297C233.806 257.46 233.057 258.206 232.046 258.871C231.035 259.54 229.575 259.873 227.666 259.873L227.676 259.876ZM229.068 255.784C230.76 255.784 232.165 255.232 233.283 254.127C234.4 253.023 234.959 251.447 234.959 249.402V248.992C234.959 246.919 234.406 245.336 233.302 244.245C232.197 243.153 230.786 242.607 229.068 242.607C227.35 242.607 225.964 243.153 224.834 244.245C223.701 245.336 223.135 246.919 223.135 248.992V249.402C223.135 251.447 223.701 253.023 224.834 254.127C225.964 255.232 227.379 255.784 229.068 255.784Z" fill="white"/>
<path d="M247.89 228.079C247.044 228.079 246.314 227.802 245.701 227.24C245.087 226.681 244.78 225.938 244.78 225.011C244.78 224.085 245.087 223.342 245.701 222.783C246.314 222.224 247.044 221.943 247.89 221.943C248.791 221.943 249.534 222.224 250.119 222.783C250.706 223.342 250.997 224.085 250.997 225.011C250.997 225.938 250.703 226.681 250.119 227.24C249.531 227.799 248.788 228.079 247.89 228.079ZM245.555 259.299V230.657H250.261V259.299H245.555Z" fill="white"/>
<path d="M265.81 259.874C263.792 259.874 261.983 259.458 260.388 258.628C258.792 257.795 257.536 256.609 256.622 255.069C255.708 253.528 255.253 251.681 255.253 249.524V248.868C255.253 246.714 255.708 244.857 256.622 243.304C257.536 241.75 258.789 240.562 260.388 239.745C261.983 238.928 263.792 238.518 265.81 238.518C267.829 238.518 269.628 238.928 271.21 239.745C272.793 240.562 274.039 241.75 274.953 243.304C275.867 244.86 276.322 246.714 276.322 248.868V249.524C276.322 251.678 275.867 253.528 274.953 255.069C274.039 256.609 272.793 257.798 271.21 258.628C269.628 259.461 267.829 259.874 265.81 259.874ZM265.81 255.702C267.528 255.702 268.933 255.15 270.025 254.045C271.116 252.941 271.662 251.394 271.662 249.401V248.991C271.662 247.002 271.116 245.451 270.025 244.347C268.933 243.242 267.528 242.69 265.81 242.69C264.092 242.69 262.687 243.242 261.596 244.347C260.504 245.451 259.958 246.998 259.958 248.991V249.401C259.958 251.394 260.504 252.941 261.596 254.045C262.687 255.15 264.092 255.702 265.81 255.702Z" fill="white"/>
<path d="M289.664 259.875C287.045 259.875 284.891 259.304 283.199 258.157C281.507 257.011 280.483 255.334 280.131 253.125L284.468 252.021C284.659 253.058 285.001 253.875 285.492 254.475C285.983 255.076 286.59 255.499 287.313 255.745C288.037 255.99 288.822 256.113 289.664 256.113C290.947 256.113 291.909 255.88 292.548 255.418C293.188 254.957 293.511 254.369 293.511 253.658C293.511 252.948 293.204 252.376 292.59 252.021C291.977 251.666 291.043 251.365 289.787 251.12L288.518 250.916C287.126 250.645 285.86 250.271 284.714 249.793C283.567 249.315 282.647 248.662 281.952 247.829C281.258 246.996 280.909 245.94 280.909 244.658C280.909 242.694 281.639 241.179 283.099 240.117C284.559 239.054 286.474 238.521 288.847 238.521C291.221 238.521 292.981 239.025 294.454 240.036C295.927 241.047 296.882 242.397 297.318 244.086L292.981 245.397C292.762 244.251 292.287 243.44 291.55 242.962C290.814 242.484 289.913 242.245 288.851 242.245C287.788 242.245 286.919 242.436 286.335 242.817C285.747 243.198 285.456 243.744 285.456 244.454C285.456 245.165 285.757 245.694 286.357 246.05C286.958 246.405 287.762 246.663 288.773 246.828L290.042 247.073C291.541 247.345 292.9 247.7 294.115 248.136C295.329 248.572 296.288 249.198 296.999 250.019C297.709 250.836 298.061 251.943 298.061 253.332C298.061 255.431 297.306 257.049 295.791 258.18C294.276 259.31 292.238 259.878 289.674 259.878L289.664 259.875Z" fill="white"/>
</g>
<defs>
<clipPath id="clip0_819_21">
<rect width="157.036" height="71.7538" fill="white" transform="translate(145.481 188.123)"/>
</clipPath>
</defs>
</svg>
