<svg width="146" height="84" viewBox="0 0 146 84" fill="none" xmlns="http://www.w3.org/2000/svg">
<g clip-path="url(#clip0_35_6922)">
<path d="M4.7594 34.5807L0 0H4.22934L8.24272 31.6331H8.84571L12.329 9.70952H19.7556L23.2389 31.6331H23.8419L26.0435 13.0246H30.3065L27.2887 34.5807H19.8622L16.3452 12.2309H15.7422L12.1888 34.5807H4.76221H4.7594Z" fill="#717171"/>
<path d="M39.6541 35.08C38.4228 35.08 37.3094 34.8613 36.3138 34.4237C35.3181 33.9862 34.5301 33.3524 33.9495 32.5222C33.369 31.6921 33.0801 30.674 33.0801 29.4652C33.0801 28.2564 33.369 27.286 33.9495 26.4811C34.5301 25.6762 35.3294 25.0648 36.3474 24.6497C37.3655 24.2346 38.5266 24.0271 39.8308 24.0271H44.9127V22.9613C44.9127 22.0386 44.6294 21.287 44.0601 20.7064C43.4908 20.1259 42.6045 19.837 41.3957 19.837C40.1869 19.837 39.3175 20.1147 38.7145 20.6728C38.1115 21.2309 37.7133 21.9461 37.5254 22.8211L33.7588 21.5787C34.0421 20.656 34.4992 19.8146 35.1274 19.0573C35.7557 18.3001 36.5886 17.6887 37.6319 17.2259C38.6753 16.7632 39.9542 16.5332 41.4686 16.5332C43.7656 16.5332 45.5718 17.1081 46.8871 18.2552C48.2025 19.4051 48.8588 21.0682 48.8588 23.2474V30.1411C48.8588 30.8507 49.1897 31.2069 49.8544 31.2069H51.3464V34.5836H48.4689C47.6163 34.5836 46.918 34.3705 46.3711 33.9442C45.827 33.5179 45.5549 32.9373 45.5549 32.2025V32.1324H44.9519C44.8089 32.4633 44.5621 32.8672 44.2059 33.3412C43.8497 33.8151 43.3113 34.2246 42.5905 34.5668C41.8669 34.9089 40.8909 35.0828 39.6597 35.0828L39.6541 35.08ZM40.33 31.7397C41.679 31.7397 42.7812 31.3555 43.6338 30.5842C44.4864 29.813 44.9127 28.7781 44.9127 27.4739V27.1178H40.0804C39.2025 27.1178 38.493 27.3085 37.9489 27.6871C37.4048 28.0657 37.1327 28.6238 37.1327 29.3586C37.1327 30.0934 37.416 30.6431 37.9853 31.0807C38.5547 31.521 39.3343 31.7369 40.33 31.7369V31.7397Z" fill="#717171"/>
<path d="M54.9644 34.6085V17.0545H58.9805V19.0794H59.5835C59.8444 18.3446 60.2819 17.8117 60.8989 17.4808C61.5131 17.1498 62.2479 16.9844 63.1033 16.9844H64.7945V20.6079H63.0332C61.8496 20.6079 60.8877 20.922 60.1557 21.5503C59.4209 22.1785 59.0535 23.1433 59.0535 24.4474L59.017 34.6085H54.9672H54.9644Z" fill="#717171"/>
<path d="M75.4716 35.0792C73.197 35.0792 71.3264 34.5828 69.8568 33.5871C68.3871 32.5915 67.4981 31.1359 67.1924 29.2176L70.959 28.2584C71.1244 29.1587 71.4217 29.8682 71.848 30.3899C72.2743 30.9115 72.8016 31.2789 73.4298 31.4921C74.058 31.7052 74.7396 31.8118 75.4716 31.8118C76.585 31.8118 77.4208 31.6099 77.9761 31.2088C78.5314 30.8078 78.8118 30.2973 78.8118 29.6803C78.8118 29.0633 78.5454 28.5669 78.0125 28.2584C77.4797 27.9499 76.6691 27.689 75.5781 27.4759L74.4759 27.2992C73.2671 27.0636 72.1677 26.7383 71.1721 26.3232C70.1765 25.9081 69.3772 25.3416 68.7742 24.618C68.1712 23.8944 67.8683 22.9773 67.8683 21.8639C67.8683 20.1587 68.5021 18.8433 69.7698 17.9206C71.0375 16.9979 72.7006 16.5352 74.762 16.5352C76.8234 16.5352 78.3519 16.9727 79.6308 17.8505C80.9097 18.7284 81.7398 19.9007 82.1185 21.3675L78.3519 22.5061C78.1612 21.5105 77.7489 20.8066 77.1094 20.3915C76.47 19.9764 75.6875 19.7689 74.7648 19.7689C73.8421 19.7689 73.0877 19.9343 72.58 20.2653C72.0696 20.5962 71.8172 21.0702 71.8172 21.6872C71.8172 22.3042 72.078 22.7642 72.5996 23.0727C73.1213 23.3812 73.8196 23.6056 74.6975 23.7486L75.7997 23.9617C77.101 24.1973 78.2818 24.5058 79.3363 24.8844C80.3908 25.2631 81.2238 25.8072 81.8408 26.5195C82.4578 27.2291 82.7635 28.1911 82.7635 29.397C82.7635 31.22 82.1072 32.6251 80.7919 33.6068C79.4765 34.5884 77.7068 35.082 75.48 35.082L75.4716 35.0792Z" fill="#717171"/>
<path d="M86.8779 28.6456V9.70898H90.9642V19.3372H91.5672C91.7579 18.9361 92.0636 18.5323 92.4899 18.1284C92.9162 17.7245 93.48 17.3936 94.1783 17.1328C94.8766 16.8719 95.7601 16.7429 96.8258 16.7429C98.1749 16.7429 99.3724 17.0458 100.416 17.6488C101.459 18.2518 102.27 19.0988 102.85 20.1898C103.431 21.278 103.72 22.5709 103.72 24.0629V34.5802H99.6332V24.3826C99.6332 22.9607 99.2827 21.9006 98.5843 21.2022C97.886 20.5039 96.896 20.1533 95.6171 20.1533C94.1727 20.1533 93.034 20.6329 92.2067 21.5921C91.3765 22.5512 90.9642 23.9199 90.9642 25.6952V28.6428H86.8779V28.6456Z" fill="#717171"/>
<path d="M110.754 14.7877C110.019 14.7877 109.385 14.5465 108.852 14.0585C108.319 13.5733 108.053 12.9283 108.053 12.1234C108.053 11.3184 108.319 10.6734 108.852 10.1882C109.385 9.70299 110.019 9.45898 110.754 9.45898C111.536 9.45898 112.181 9.70299 112.689 10.1882C113.199 10.6734 113.452 11.3184 113.452 12.1234C113.452 12.9283 113.196 13.5733 112.689 14.0585C112.178 14.5437 111.533 14.7877 110.754 14.7877ZM108.729 34.5798V17.0258H112.815V34.5798H108.729Z" fill="#717171"/>
<path d="M118.003 39.3635V17.0305H122.02V19.3387H122.623C123.026 18.6038 123.672 17.9532 124.561 17.3838C125.45 16.8145 126.723 16.5312 128.38 16.5312C129.802 16.5312 131.123 16.8818 132.343 17.5802C133.563 18.2785 134.539 19.3022 135.274 20.654C136.009 22.003 136.376 23.6269 136.376 25.5228V26.0921C136.376 27.988 136.009 29.6091 135.274 30.9609C134.539 32.3099 133.569 33.3364 132.36 34.0348C131.151 34.7331 129.825 35.0837 128.38 35.0837C127.267 35.0837 126.339 34.9519 125.593 34.6938C124.847 34.433 124.244 34.0908 123.781 33.6645C123.318 33.2382 122.956 32.8119 122.698 32.3856H122.095V39.3719H118.009L118.003 39.3635ZM127.172 31.5274C128.664 31.5274 129.889 31.0479 130.848 30.0887C131.808 29.1295 132.287 27.7609 132.287 25.9856V25.6294C132.287 23.8288 131.802 22.4546 130.832 21.5066C129.861 20.5587 128.641 20.0847 127.172 20.0847C125.702 20.0847 124.476 20.5587 123.495 21.5066C122.51 22.4546 122.02 23.8288 122.02 25.6294V25.9856C122.02 27.7609 122.51 29.1295 123.495 30.0887C124.476 31.0479 125.702 31.5274 127.172 31.5274Z" fill="#717171"/>
<path d="M16.9003 62.3135C15.0044 62.3135 13.3301 61.9769 11.8717 61.301C10.4161 60.6251 9.27182 59.6491 8.44166 58.3702C7.61149 57.0913 7.19922 55.5292 7.19922 53.6809V52.7582H11.4286V53.6809C11.4286 55.316 11.925 56.536 12.9206 57.3409C13.9162 58.1458 15.2428 58.5497 16.9003 58.5497C18.5578 58.5497 19.8508 58.2075 20.7034 57.5204C21.556 56.8333 21.9823 55.9442 21.9823 54.8561C21.9823 54.1212 21.7803 53.5239 21.3793 53.0611C20.9754 52.5984 20.3892 52.2253 19.6208 51.9421C18.8495 51.6588 17.9212 51.3868 16.8302 51.1259L15.7645 50.9128C14.1294 50.5342 12.7131 50.0546 11.5183 49.474C10.3207 48.8935 9.40363 48.1418 8.76418 47.2191C8.12474 46.2964 7.80501 45.0876 7.80501 43.5956C7.80501 42.1035 8.1612 40.8246 8.87076 39.7589C9.58032 38.6931 10.5872 37.877 11.8913 37.3077C13.1926 36.7383 14.7212 36.4551 16.474 36.4551C18.2269 36.4551 19.7891 36.7524 21.1633 37.3441C22.5376 37.9359 23.6201 38.825 24.4138 40.0085C25.2075 41.192 25.603 42.6729 25.603 44.451V45.6233H21.3737V44.451C21.3737 43.4329 21.1717 42.6168 20.7707 41.9998C20.3668 41.3828 19.8003 40.934 19.0655 40.648C18.3307 40.3647 17.4669 40.2217 16.4712 40.2217C15.0016 40.2217 13.8882 40.5049 13.1309 41.0743C12.3737 41.6436 11.9951 42.4485 11.9951 43.4918C11.9951 44.1565 12.1662 44.7174 12.5111 45.1802C12.8533 45.6429 13.3637 46.0216 14.0396 46.316C14.7155 46.6133 15.5625 46.8658 16.5806 47.0789L17.6463 47.3285C19.3515 47.7071 20.8436 48.1867 22.1225 48.7673C23.4014 49.3478 24.4026 50.1107 25.1262 51.0586C25.8498 52.0066 26.2088 53.2378 26.2088 54.7551C26.2088 56.2724 25.8246 57.5625 25.0533 58.6984C24.282 59.8342 23.2051 60.7233 21.8196 61.3627C20.4341 62.0022 18.7934 62.3219 16.8975 62.3219L16.9003 62.3135Z" fill="#717171"/>
<path d="M32.7912 61.8138C31.6553 61.8138 30.7466 61.4772 30.0735 60.8013C29.4004 60.1254 29.061 59.2083 29.061 58.0472V38.6113H33.1473V44.2598H38.1928V47.6337H33.1473V57.3713C33.1473 58.0809 33.4783 58.437 34.143 58.437H37.6599V61.8138H32.7912Z" fill="#717171"/>
<path d="M49.0662 62.1008C47.7172 62.1008 46.5197 61.7979 45.4763 61.1949C44.433 60.5891 43.6281 59.7393 43.0616 58.6371C42.4922 57.5349 42.209 56.2504 42.209 54.7808V44.2635H46.2588V54.461C46.2588 55.883 46.6066 56.9375 47.3077 57.6246C48.0061 58.3117 48.9961 58.6539 50.275 58.6539C51.7194 58.6539 52.8637 58.1799 53.705 57.232C54.5464 56.284 54.9671 54.921 54.9671 53.1457V34.582H59.0169V61.8147H55.0372V59.3635H54.4342C54.1257 60.0029 53.5648 60.6199 52.7459 61.2117C51.9297 61.8035 50.7013 62.1008 49.069 62.1008H49.0662Z" fill="#717171"/>
<path d="M71.3795 62.3127C69.9576 62.3127 68.631 61.9621 67.3998 61.2637C66.1686 60.5654 65.1842 59.5389 64.4494 58.1899C63.7146 56.8381 63.3472 55.217 63.3472 53.3211V52.7518C63.3472 50.8559 63.7146 49.2348 64.4494 47.883C65.1842 46.5312 66.1602 45.5075 67.3802 44.8092C68.6002 44.1108 69.9324 43.7602 71.3767 43.7602C72.4649 43.7602 73.3904 43.8921 74.1477 44.1501C74.9049 44.4109 75.5163 44.7418 75.9763 45.1457C76.439 45.5496 76.798 45.9871 77.0589 46.4611H77.6618V36.9395H81.7117V61.8134H77.732V59.5053H77.129C76.7027 60.2148 76.052 60.8627 75.1742 61.4404C74.2963 62.021 73.0286 62.3099 71.3711 62.3099L71.3795 62.3127ZM72.5883 58.7592C74.0579 58.7592 75.2779 58.2796 76.2483 57.3205C77.2187 56.3613 77.7039 54.9927 77.7039 53.2173V52.8612C77.7039 51.0606 77.2243 49.6864 76.2652 48.7384C75.306 47.7904 74.0804 47.3165 72.5883 47.3165C71.0963 47.3165 69.8931 47.7904 68.9115 48.7384C67.9271 49.6864 67.4363 51.0606 67.4363 52.8612V53.2173C67.4363 54.9927 67.9271 56.3613 68.9115 57.3205C69.8931 58.2796 71.1215 58.7592 72.5883 58.7592Z" fill="#717171"/>
<path d="M88.9337 34.7018C88.1989 34.7018 87.5651 34.4606 87.0322 33.9726C86.4993 33.4874 86.2329 32.8423 86.2329 32.0374C86.2329 31.2325 86.4993 30.5874 87.0322 30.1022C87.5651 29.617 88.1989 29.373 88.9337 29.373C89.7162 29.373 90.3613 29.617 90.8689 30.1022C91.3793 30.5874 91.6318 31.2325 91.6318 32.0374C91.6318 32.8423 91.3765 33.4874 90.8689 33.9726C90.3585 34.4578 89.7134 34.7018 88.9337 34.7018ZM86.906 61.8138V36.9399H90.9923V61.8138H86.906Z" fill="#717171"/>
<path d="M104.496 62.3124C102.743 62.3124 101.173 61.9506 99.7874 61.2299C98.402 60.5063 97.311 59.477 96.5173 58.1392C95.7236 56.8014 95.3281 55.1972 95.3281 53.3237V52.7544C95.3281 50.8837 95.7236 49.2711 96.5173 47.922C97.311 46.573 98.3992 45.5409 99.7874 44.8314C101.173 44.1218 102.743 43.7656 104.496 43.7656C106.249 43.7656 107.811 44.1218 109.186 44.8314C110.56 45.5409 111.642 46.573 112.436 47.922C113.23 49.2739 113.625 50.8837 113.625 52.7544V53.3237C113.625 55.1944 113.23 56.8014 112.436 58.1392C111.642 59.477 110.56 60.5091 109.186 61.2299C107.811 61.9535 106.249 62.3124 104.496 62.3124ZM104.496 58.6889C105.988 58.6889 107.208 58.2093 108.156 57.2501C109.104 56.291 109.578 54.9476 109.578 53.2171V52.8609C109.578 51.1333 109.104 49.7871 108.156 48.8279C107.208 47.8688 105.988 47.3892 104.496 47.3892C103.004 47.3892 101.784 47.8688 100.836 48.8279C99.8884 49.7871 99.4144 51.1305 99.4144 52.8609V53.2171C99.4144 54.9476 99.8884 56.291 100.836 57.2501C101.784 58.2093 103.004 58.6889 104.496 58.6889Z" fill="#717171"/>
<path d="M125.211 62.3135C122.936 62.3135 121.066 61.8171 119.596 60.8215C118.126 59.8259 117.237 58.3703 116.932 56.4519L120.698 55.4928C120.864 56.393 121.161 57.1026 121.587 57.6243C122.014 58.1459 122.541 58.5133 123.169 58.7265C123.797 58.9396 124.479 59.0462 125.211 59.0462C126.324 59.0462 127.16 58.8443 127.715 58.4432C128.271 58.0421 128.551 57.5317 128.551 56.9147C128.551 56.2977 128.285 55.8013 127.752 55.4928C127.219 55.1843 126.408 54.9234 125.317 54.7103L124.215 54.5336C123.006 54.298 121.907 53.9727 120.911 53.5576C119.916 53.1425 119.116 52.576 118.513 51.8524C117.91 51.1288 117.608 50.2117 117.608 49.0983C117.608 47.3931 118.241 46.0777 119.509 45.155C120.777 44.2323 122.44 43.7695 124.501 43.7695C126.563 43.7695 128.091 44.207 129.37 45.0849C130.649 45.9627 131.479 47.135 131.858 48.6019L128.091 49.7405C127.9 48.7449 127.488 48.0409 126.849 47.6259C126.209 47.2108 125.427 47.0032 124.504 47.0032C123.581 47.0032 122.827 47.1687 122.319 47.4996C121.809 47.8306 121.556 48.3046 121.556 48.9216C121.556 49.5386 121.817 49.9985 122.339 50.3071C122.861 50.6156 123.559 50.8399 124.437 50.983L125.539 51.1961C126.84 51.4317 128.021 51.7402 129.076 52.1188C130.13 52.4974 130.963 53.0415 131.58 53.7539C132.197 54.4635 132.503 55.4254 132.503 56.6314C132.503 58.4544 131.847 59.8595 130.531 60.8411C129.216 61.8227 127.446 62.3163 125.219 62.3163L125.211 62.3135Z" fill="#717171"/>
</g>
<path d="M86.1874 80.334V72.0711H87.1138V80.334H86.1874ZM86.563 80.334V79.5077H91.7961V80.334H86.563ZM86.563 76.503V75.7018H91.2077V76.503H86.563ZM86.563 72.8974V72.0711H91.7961V72.8974H86.563ZM96.156 80.4842C95.6134 80.4842 95.1335 80.4258 94.7162 80.3089C94.3072 80.1921 93.965 80.0168 93.6896 79.7831C93.4225 79.5494 93.2264 79.2615 93.1012 78.9193C92.9843 78.5771 92.9426 78.1848 92.976 77.7424L93.8273 77.5922C93.7856 78.0596 93.8524 78.4477 94.0276 78.7565C94.2029 79.057 94.4742 79.2823 94.8414 79.4326C95.217 79.5828 95.6635 79.6579 96.181 79.6579C96.6818 79.6579 97.1033 79.5995 97.4455 79.4827C97.7877 79.3575 98.0464 79.1822 98.2217 78.9568C98.4053 78.7315 98.4971 78.4727 98.4971 78.1806C98.4971 77.8468 98.3928 77.588 98.1841 77.4044C97.9838 77.2124 97.7167 77.0664 97.3829 76.9662C97.049 76.8661 96.686 76.7743 96.2937 76.6908C95.9097 76.6073 95.53 76.5155 95.1544 76.4154C94.7788 76.3152 94.4366 76.1817 94.1278 76.0147C93.8273 75.8395 93.5853 75.6141 93.4017 75.3387C93.218 75.0633 93.1262 74.7085 93.1262 74.2745C93.1262 73.7904 93.2473 73.3731 93.4893 73.0226C93.7397 72.672 94.0819 72.4008 94.5159 72.2088C94.9499 72.0168 95.4549 71.9208 96.0308 71.9208C96.6067 71.9208 97.1241 72.0127 97.5832 72.1963C98.0422 72.3799 98.4095 72.6595 98.6849 73.0351C98.9687 73.4023 99.1147 73.8656 99.1231 74.4248L98.2217 74.6126C98.2217 74.3037 98.1674 74.0325 98.0589 73.7988C97.9588 73.5567 97.8085 73.3564 97.6082 73.1978C97.4163 73.0393 97.1826 72.9224 96.9071 72.8473C96.64 72.7638 96.3438 72.7221 96.0182 72.7221C95.6343 72.7221 95.2921 72.7847 94.9916 72.9099C94.6912 73.0351 94.4533 73.2104 94.278 73.4357C94.1111 73.6527 94.0276 73.9115 94.0276 74.2119C94.0276 74.5792 94.1487 74.8629 94.3907 75.0633C94.6327 75.2636 94.9457 75.4221 95.3297 75.539C95.7136 75.6475 96.1226 75.7477 96.5566 75.8395C96.9155 75.9229 97.2619 76.0147 97.5957 76.1149C97.9379 76.2151 98.2426 76.3486 98.5096 76.5155C98.7851 76.6825 99.0021 76.8995 99.1607 77.1665C99.3192 77.4336 99.3985 77.7758 99.3985 78.1931C99.3985 78.6522 99.2775 79.057 99.0355 79.4075C98.8018 79.7497 98.4429 80.0168 97.9588 80.2088C97.483 80.3924 96.8821 80.4842 96.156 80.4842ZM102.795 80.334V72.0711H103.734V80.334H102.795ZM100.253 72.9099V72.0711H106.275V72.9099H100.253ZM110.518 80.334V79.1571L113.373 76.8661C113.565 76.7075 113.761 76.5364 113.961 76.3528C114.17 76.1608 114.362 75.9563 114.537 75.7393C114.712 75.514 114.854 75.2761 114.963 75.0257C115.079 74.7753 115.138 74.504 115.138 74.2119C115.138 73.9198 115.071 73.6652 114.938 73.4482C114.804 73.2312 114.604 73.0601 114.337 72.9349C114.078 72.8097 113.752 72.7471 113.36 72.7471C113.118 72.7471 112.884 72.7805 112.659 72.8473C112.434 72.9057 112.233 73.0184 112.058 73.1853C111.883 73.3523 111.749 73.5818 111.657 73.8739C111.566 74.166 111.524 74.5416 111.532 75.0007L110.631 74.8629C110.614 74.2704 110.702 73.7529 110.894 73.3105C111.094 72.8598 111.399 72.5134 111.808 72.2714C112.217 72.021 112.738 71.8958 113.373 71.8958C113.923 71.8958 114.399 71.9918 114.8 72.1838C115.2 72.3674 115.509 72.6261 115.726 72.96C115.943 73.2938 116.052 73.6861 116.052 74.1368C116.052 74.5291 115.985 74.888 115.851 75.2135C115.726 75.539 115.559 75.8395 115.351 76.1149C115.15 76.3903 114.929 76.6407 114.687 76.8661C114.445 77.0831 114.216 77.275 113.999 77.442L111.495 79.4451V79.5453L116.29 79.4952V80.334H110.518ZM120.807 80.5093C120.323 80.5093 119.881 80.4091 119.48 80.2088C119.079 80.0001 118.737 79.708 118.453 79.3324C118.178 78.9568 117.965 78.5103 117.815 77.9928C117.665 77.467 117.59 76.8869 117.59 76.2526C117.59 75.3512 117.723 74.5792 117.99 73.9365C118.266 73.2855 118.645 72.7847 119.129 72.4342C119.614 72.0836 120.177 71.9083 120.82 71.9083C121.487 71.9083 122.059 72.0961 122.535 72.4717C123.01 72.8389 123.374 73.3481 123.624 73.9991C123.883 74.6501 124.012 75.4013 124.012 76.2526C124.012 76.8702 123.937 77.4378 123.787 77.9553C123.645 78.4727 123.432 78.9234 123.148 79.3074C122.873 79.6913 122.539 79.9876 122.147 80.1963C121.754 80.4049 121.308 80.5093 120.807 80.5093ZM120.795 79.6704C121.137 79.6704 121.446 79.5953 121.721 79.4451C121.996 79.2949 122.234 79.0737 122.435 78.7816C122.643 78.4894 122.802 78.1264 122.91 77.6924C123.027 77.25 123.086 76.745 123.086 76.1775C123.086 75.4681 122.99 74.8588 122.798 74.3496C122.614 73.8322 122.351 73.4357 122.009 73.1603C121.667 72.8765 121.266 72.7346 120.807 72.7346C120.398 72.7346 120.018 72.8598 119.668 73.1102C119.317 73.3606 119.033 73.7404 118.816 74.2495C118.608 74.7586 118.503 75.4096 118.503 76.2025C118.503 76.7617 118.558 77.2583 118.666 77.6924C118.783 78.118 118.942 78.4811 119.142 78.7816C119.342 79.0737 119.58 79.2949 119.856 79.4451C120.139 79.5953 120.452 79.6704 120.795 79.6704ZM126.435 80.334V73.7737H125.258V72.9475C125.625 72.9475 125.934 72.8932 126.184 72.7847C126.443 72.6678 126.61 72.43 126.685 72.0711H127.374V80.334H126.435ZM132.243 80.5093C131.851 80.5093 131.492 80.4634 131.167 80.3715C130.841 80.2797 130.557 80.142 130.315 79.9584C130.073 79.7748 129.873 79.5494 129.714 79.2823C129.556 79.0069 129.443 78.6939 129.376 78.3434L130.253 78.1055C130.32 78.4143 130.42 78.6689 130.553 78.8692C130.695 79.0695 130.858 79.2281 131.041 79.3449C131.225 79.4534 131.421 79.5327 131.63 79.5828C131.839 79.6329 132.051 79.6579 132.268 79.6579C132.719 79.6579 133.095 79.5703 133.395 79.395C133.704 79.2197 133.95 78.9777 134.134 78.6689C134.317 78.3517 134.447 77.9928 134.522 77.5922C134.605 77.1916 134.647 76.7701 134.647 76.3277C134.647 76.044 134.635 75.7769 134.61 75.5265C134.584 75.2677 134.551 75.0215 134.509 74.7878C134.468 74.5458 134.426 74.3163 134.384 74.0993H134.209C134.276 74.6084 134.255 75.0549 134.146 75.4388C134.038 75.8144 133.863 76.1274 133.62 76.3778C133.387 76.6199 133.111 76.8035 132.794 76.9287C132.485 77.0539 132.16 77.1165 131.818 77.1165C131.367 77.1165 130.95 77.0163 130.566 76.816C130.19 76.6073 129.885 76.311 129.652 75.9271C129.426 75.5432 129.314 75.0841 129.314 74.55C129.314 74.1911 129.372 73.853 129.489 73.5359C129.606 73.2104 129.777 72.9266 130.002 72.6845C130.236 72.4425 130.528 72.2505 130.879 72.1086C131.229 71.9668 131.642 71.8958 132.118 71.8958C132.819 71.8958 133.424 72.0669 133.933 72.4091C134.451 72.7513 134.847 73.2521 135.123 73.9115C135.398 74.5708 135.536 75.3929 135.536 76.3778C135.536 77.2041 135.423 77.9302 135.198 78.5562C134.973 79.1738 134.618 79.6538 134.134 79.996C133.658 80.3382 133.028 80.5093 132.243 80.5093ZM132.018 76.3528C132.385 76.3528 132.707 76.2693 132.982 76.1024C133.257 75.9271 133.474 75.6851 133.633 75.3762C133.792 75.0674 133.871 74.7044 133.871 74.287C133.871 73.8614 133.787 73.5359 133.62 73.3105C133.462 73.0768 133.257 72.9182 133.007 72.8348C132.757 72.7513 132.494 72.7096 132.218 72.7096C131.843 72.7096 131.526 72.7638 131.267 72.8723C131.016 72.9808 130.816 73.1269 130.666 73.3105C130.516 73.4941 130.407 73.6945 130.34 73.9115C130.274 74.1201 130.24 74.3371 130.24 74.5625C130.24 74.9548 130.324 75.2844 130.491 75.5515C130.658 75.8186 130.875 76.0189 131.142 76.1525C131.417 76.286 131.709 76.3528 132.018 76.3528Z" fill="#717171"/>
<path d="M139.517 7.01367V2.33221H141.148C141.385 2.33221 141.6 2.35113 141.794 2.38896C141.992 2.42679 142.167 2.48353 142.319 2.55919C142.475 2.63485 142.605 2.72706 142.709 2.83583C142.817 2.94459 142.898 3.07226 142.95 3.21885C143.007 3.36072 143.035 3.51913 143.035 3.69409C143.035 3.8596 143.009 4.01092 142.957 4.14805C142.91 4.28519 142.836 4.40577 142.737 4.5098C142.638 4.61383 142.515 4.69895 142.368 4.76515C142.222 4.82663 142.051 4.86919 141.857 4.89283V4.98504C142.028 5.00396 142.177 5.04888 142.304 5.11981C142.432 5.19074 142.541 5.29477 142.631 5.43191C142.72 5.56431 142.798 5.74164 142.865 5.96389L143.163 7.01367H142.46L142.219 6.0561C142.177 5.86222 142.103 5.70617 141.999 5.58796C141.9 5.46974 141.775 5.38225 141.623 5.32551C141.472 5.26877 141.295 5.24039 141.091 5.24039H140.169V7.01367H139.517ZM140.169 4.70841H141.091C141.512 4.70841 141.829 4.63275 142.042 4.48143C142.259 4.33011 142.368 4.0984 142.368 3.7863C142.368 3.47421 142.264 3.24486 142.056 3.09827C141.853 2.94695 141.536 2.87129 141.106 2.87129H140.169V4.70841Z" fill="#717171"/>
<circle cx="141.187" cy="4.81319" r="4.48386" stroke="#717171" stroke-width="0.658647"/>
<defs>
<clipPath id="clip0_35_6922">
<rect width="136.374" height="62.3126" fill="white"/>
</clipPath>
</defs>
</svg>
