<svg width="85" height="39" viewBox="0 0 85 39" fill="none" xmlns="http://www.w3.org/2000/svg">
<g clip-path="url(#clip0_35_6394)">
<path d="M2.96648 21.5537L0 0H2.63609L5.13758 19.7165H5.51342L7.68452 6.05183H12.3134L14.4845 19.7165H14.8604L16.2326 8.11805H18.8897L17.0087 21.5537H12.3798L10.1878 7.62334H9.81193L7.59712 21.5537H2.96823H2.96648Z" fill="#0A231D"/>
<path d="M24.7161 21.8649C23.9487 21.8649 23.2547 21.7286 22.6342 21.4559C22.0136 21.1832 21.5224 20.7881 21.1606 20.2707C20.7987 19.7533 20.6187 19.1187 20.6187 18.3653C20.6187 17.6119 20.7987 17.007 21.1606 16.5053C21.5224 16.0036 22.0206 15.6226 22.6552 15.3639C23.2897 15.1051 24.0134 14.9758 24.8263 14.9758H27.9938V14.3115C27.9938 13.7364 27.8172 13.2679 27.4624 12.9061C27.1075 12.5442 26.5551 12.3642 25.8017 12.3642C25.0483 12.3642 24.5064 12.5372 24.1305 12.8851C23.7547 13.233 23.5065 13.6787 23.3893 14.2241L21.0417 13.4497C21.2182 12.8746 21.5032 12.3502 21.8947 11.8782C22.2863 11.4062 22.8055 11.0251 23.4558 10.7367C24.1061 10.4483 24.9032 10.3049 25.8471 10.3049C27.2788 10.3049 28.4046 10.6633 29.2244 11.3782C30.0443 12.095 30.4533 13.1316 30.4533 14.4898V18.7866C30.4533 19.2288 30.6596 19.4508 31.0739 19.4508H32.0038V21.5555H30.2103C29.6789 21.5555 29.2436 21.4227 28.9028 21.157C28.5636 20.8913 28.3941 20.5294 28.3941 20.0714V20.0277H28.0182C27.9291 20.234 27.7753 20.4857 27.5533 20.7811C27.3312 21.0766 26.9956 21.3318 26.5464 21.545C26.0954 21.7583 25.487 21.8667 24.7196 21.8667L24.7161 21.8649ZM25.1374 19.783C25.9782 19.783 26.6652 19.5435 27.1966 19.0628C27.7281 18.5821 27.9938 17.937 27.9938 17.1242V16.9022H24.9818C24.4347 16.9022 23.9924 17.021 23.6533 17.257C23.3142 17.493 23.1446 17.8409 23.1446 18.2989C23.1446 18.7569 23.3212 19.0995 23.676 19.3722C24.0309 19.6466 24.5169 19.7812 25.1374 19.7812V19.783Z" fill="#0A231D"/>
<path d="M34.2588 21.5713V10.6301H36.762V11.8922H37.1379C37.3004 11.4342 37.5731 11.1021 37.9577 10.8958C38.3405 10.6896 38.7985 10.5864 39.3317 10.5864H40.3858V12.8449H39.288C38.5503 12.8449 37.9507 13.0407 37.4945 13.4323C37.0365 13.8239 36.8075 14.4252 36.8075 15.238L36.7848 21.5713H34.2605H34.2588Z" fill="#0A231D"/>
<path d="M47.0407 21.8649C45.623 21.8649 44.457 21.5555 43.541 20.9349C42.625 20.3144 42.0709 19.4071 41.8804 18.2114L44.228 17.6136C44.3312 18.1747 44.5165 18.617 44.7822 18.9421C45.0479 19.2673 45.3765 19.4963 45.7681 19.6291C46.1597 19.762 46.5844 19.8284 47.0407 19.8284C47.7347 19.8284 48.2556 19.7025 48.6017 19.4526C48.9478 19.2026 49.1226 18.8844 49.1226 18.4999C49.1226 18.1153 48.9566 17.8059 48.6244 17.6136C48.2923 17.4213 47.7871 17.2587 47.1071 17.1259L46.4201 17.0157C45.6667 16.8689 44.9815 16.6661 44.3609 16.4074C43.7403 16.1487 43.2421 15.7956 42.8663 15.3446C42.4904 14.8936 42.3017 14.322 42.3017 13.628C42.3017 12.5651 42.6967 11.7453 43.4868 11.1702C44.277 10.5951 45.3136 10.3066 46.5984 10.3066C47.8833 10.3066 48.8359 10.5793 49.6331 11.1265C50.4302 11.6736 50.9476 12.4043 51.1836 13.3186L48.8359 14.0283C48.7171 13.4077 48.4601 12.969 48.0616 12.7102C47.663 12.4515 47.1753 12.3222 46.6002 12.3222C46.025 12.3222 45.5548 12.4253 45.2384 12.6316C44.9203 12.8378 44.7629 13.1333 44.7629 13.5178C44.7629 13.9024 44.9255 14.1891 45.2507 14.3814C45.5758 14.5737 46.0111 14.7135 46.5582 14.8027L47.2452 14.9355C48.0563 15.0824 48.7922 15.2747 49.4495 15.5107C50.1068 15.7466 50.626 16.0858 51.0106 16.5298C51.3951 16.972 51.5857 17.5716 51.5857 18.3233C51.5857 19.4595 51.1766 20.3353 50.3568 20.9472C49.5369 21.559 48.4339 21.8666 47.0459 21.8666L47.0407 21.8649Z" fill="#0A231D"/>
<path d="M54.1499 17.8547V6.05176H56.6968V12.0529H57.0727C57.1915 11.8029 57.3821 11.5512 57.6478 11.2995C57.9135 11.0477 58.2649 10.8415 58.7001 10.6789C59.1354 10.5163 59.686 10.4359 60.3503 10.4359C61.1911 10.4359 61.9376 10.6247 62.5878 11.0005C63.2381 11.3764 63.7433 11.9043 64.1052 12.5843C64.467 13.2626 64.6471 14.0684 64.6471 14.9984V21.5537H62.1001V15.1977C62.1001 14.3114 61.8816 13.6506 61.4464 13.2154C61.0111 12.7801 60.394 12.5616 59.5969 12.5616C58.6966 12.5616 57.9869 12.8605 57.4712 13.4583C56.9538 14.0562 56.6968 14.9092 56.6968 16.0158V17.853H54.1499V17.8547Z" fill="#0A231D"/>
<path d="M69.0315 9.21758C68.5735 9.21758 68.1785 9.06724 67.8463 8.76308C67.5142 8.46066 67.3481 8.05861 67.3481 7.55691C67.3481 7.05521 67.5142 6.65316 67.8463 6.35074C68.1785 6.04832 68.5735 5.89624 69.0315 5.89624C69.5193 5.89624 69.9213 6.04832 70.2377 6.35074C70.5559 6.65316 70.7132 7.05521 70.7132 7.55691C70.7132 8.05861 70.5541 8.46066 70.2377 8.76308C69.9196 9.0655 69.5175 9.21758 69.0315 9.21758ZM67.7694 21.5537V10.6125H70.3164V21.5537H67.7694Z" fill="#0A231D"/>
<path d="M73.5503 24.5343V10.6144H76.0535V12.053H76.4294C76.6811 11.595 77.0831 11.1895 77.6373 10.8346C78.1914 10.4798 78.985 10.3032 80.0182 10.3032C80.9044 10.3032 81.7278 10.5217 82.4882 10.957C83.2486 11.3923 83.8569 12.0303 84.3149 12.8729C84.7729 13.7137 85.0019 14.7258 85.0019 15.9075V16.2624C85.0019 17.4441 84.7729 18.4545 84.3149 19.2971C83.8569 20.1379 83.2521 20.7777 82.4987 21.2129C81.7453 21.6482 80.9184 21.8667 80.0182 21.8667C79.3242 21.8667 78.7456 21.7846 78.2806 21.6237C77.8156 21.4612 77.4398 21.2479 77.1513 20.9822C76.8629 20.7165 76.6374 20.4508 76.4766 20.1851H76.1007V24.5395H73.5538L73.5503 24.5343ZM79.2647 19.6502C80.1947 19.6502 80.9586 19.3512 81.5565 18.7534C82.1543 18.1556 82.4532 17.3025 82.4532 16.196V15.974C82.4532 14.8517 82.1508 13.9952 81.546 13.4043C80.9411 12.8135 80.1807 12.518 79.2647 12.518C78.3488 12.518 77.5848 12.8135 76.973 13.4043C76.3594 13.9952 76.0535 14.8517 76.0535 15.974V16.196C76.0535 17.3025 76.3594 18.1556 76.973 18.7534C77.5848 19.3512 78.3488 19.6502 79.2647 19.6502Z" fill="#0A231D"/>
<path d="M10.5339 38.8387C9.35219 38.8387 8.30859 38.6289 7.39959 38.2076C6.49234 37.7863 5.77913 37.178 5.2617 36.3809C4.74427 35.5837 4.4873 34.6101 4.4873 33.4581V32.883H7.1234V33.4581C7.1234 34.4772 7.43281 35.2376 8.05337 35.7393C8.67394 36.241 9.50077 36.4927 10.5339 36.4927C11.567 36.4927 12.3729 36.2795 12.9043 35.8512C13.4357 35.4229 13.7014 34.8688 13.7014 34.1905C13.7014 33.7325 13.5755 33.3602 13.3256 33.0718C13.0738 32.7833 12.7085 32.5508 12.2295 32.3743C11.7488 32.1977 11.1702 32.0282 10.4902 31.8656L9.82592 31.7327C8.80679 31.4968 7.92401 31.1978 7.17934 30.836C6.43291 30.4741 5.86129 30.0057 5.46273 29.4305C5.06417 28.8554 4.86489 28.102 4.86489 27.172C4.86489 26.2421 5.08689 25.4449 5.52916 24.7807C5.97142 24.1164 6.59898 23.6077 7.41183 23.2529C8.22293 22.898 9.17563 22.7214 10.2682 22.7214C11.3607 22.7214 12.3344 22.9067 13.191 23.2756C14.0475 23.6444 14.7223 24.1986 15.217 24.9362C15.7117 25.6739 15.9582 26.5969 15.9582 27.7052V28.4359H13.3221V27.7052C13.3221 27.0706 13.1962 26.562 12.9462 26.1774C12.6945 25.7928 12.3414 25.5131 11.8834 25.3348C11.4254 25.1582 10.887 25.0691 10.2664 25.0691C9.35044 25.0691 8.65646 25.2457 8.18448 25.6005C7.7125 25.9554 7.47651 26.4571 7.47651 27.1073C7.47651 27.5216 7.58314 27.8713 7.79815 28.1597C8.01142 28.4481 8.32957 28.6841 8.75085 28.8677C9.17214 29.053 9.70005 29.2103 10.3346 29.3431L10.9989 29.4987C12.0617 29.7347 12.9917 30.0336 13.7888 30.3955C14.5859 30.7573 15.21 31.2328 15.661 31.8236C16.112 32.4145 16.3357 33.1819 16.3357 34.1276C16.3357 35.0733 16.0963 35.8774 15.6155 36.5854C15.1348 37.2934 14.4636 37.8475 13.6 38.2461C12.7365 38.6446 11.7138 38.8439 10.5321 38.8439L10.5339 38.8387Z" fill="#0A231D"/>
<path d="M20.4382 38.5275C19.7302 38.5275 19.1639 38.3177 18.7443 37.8964C18.3248 37.4751 18.1133 36.9035 18.1133 36.1798V24.0657H20.6602V27.5863H23.805V29.6892H20.6602V35.7585C20.6602 36.2008 20.8665 36.4228 21.2808 36.4228H23.4729V38.5275H20.4382Z" fill="#0A231D"/>
<path d="M30.5826 38.7058C29.7418 38.7058 28.9954 38.517 28.3451 38.1412C27.6948 37.7636 27.1931 37.2339 26.84 36.5469C26.4851 35.8599 26.3086 35.0593 26.3086 34.1433V27.5881H28.8328V33.944C28.8328 34.8303 29.0496 35.4876 29.4866 35.9159C29.9219 36.3441 30.5389 36.5574 31.336 36.5574C32.2363 36.5574 32.9495 36.262 33.4739 35.6711C33.9984 35.0803 34.2606 34.2307 34.2606 33.1242V21.5537H36.7848V38.5275H34.3043V36.9997H33.9284C33.7362 37.3982 33.3865 37.7828 32.8761 38.1517C32.3674 38.5205 31.6018 38.7058 30.5844 38.7058H30.5826Z" fill="#0A231D"/>
<path d="M44.4904 38.8387C43.6041 38.8387 42.7773 38.6202 42.0099 38.185C41.2424 37.7497 40.6289 37.1099 40.1709 36.2691C39.7129 35.4265 39.4839 34.4161 39.4839 33.2344V32.8796C39.4839 31.6979 39.7129 30.6875 40.1709 29.8449C40.6289 29.0023 41.2372 28.3643 41.9976 27.929C42.758 27.4937 43.5884 27.2752 44.4886 27.2752C45.1669 27.2752 45.7437 27.3574 46.2157 27.5182C46.6877 27.6808 47.0688 27.8871 47.3555 28.1388C47.6439 28.3905 47.8676 28.6632 48.0302 28.9586H48.406V23.0239H50.9303V38.5276H48.4497V37.0889H48.0739C47.8082 37.5312 47.4027 37.935 46.8555 38.2951C46.3084 38.6569 45.5182 38.837 44.4851 38.837L44.4904 38.8387ZM45.2438 36.6239C46.1598 36.6239 46.9202 36.325 47.525 35.7272C48.1299 35.1293 48.4323 34.2763 48.4323 33.1697V32.9477C48.4323 31.8255 48.1333 30.9689 47.5355 30.3781C46.9377 29.7872 46.1738 29.4918 45.2438 29.4918C44.3138 29.4918 43.5639 29.7872 42.9521 30.3781C42.3385 30.9689 42.0326 31.8255 42.0326 32.9477V33.1697C42.0326 34.2763 42.3385 35.1293 42.9521 35.7272C43.5639 36.325 44.3295 36.6239 45.2438 36.6239Z" fill="#0A231D"/>
<path d="M55.4314 21.629C54.9734 21.629 54.5784 21.4786 54.2462 21.1745C53.9141 20.872 53.748 20.47 53.748 19.9683C53.748 19.4666 53.9141 19.0645 54.2462 18.7621C54.5784 18.4597 54.9734 18.3076 55.4314 18.3076C55.9192 18.3076 56.3212 18.4597 56.6376 18.7621C56.9558 19.0645 57.1131 19.4666 57.1131 19.9683C57.1131 20.47 56.954 20.872 56.6376 21.1745C56.3195 21.4769 55.9174 21.629 55.4314 21.629ZM54.1676 38.5276V23.0239H56.7145V38.5276H54.1676Z" fill="#0A231D"/>
<path d="M65.1314 38.8388C64.0389 38.8388 63.06 38.6133 62.1964 38.1641C61.3329 37.7131 60.6529 37.0715 60.1582 36.2377C59.6635 35.4038 59.417 34.404 59.417 33.2362V32.8814C59.417 31.7154 59.6635 30.7103 60.1582 29.8695C60.6529 29.0286 61.3311 28.3853 62.1964 27.9431C63.06 27.5008 64.0389 27.2788 65.1314 27.2788C66.224 27.2788 67.1977 27.5008 68.0542 27.9431C68.9108 28.3853 69.5855 29.0286 70.0802 29.8695C70.5749 30.712 70.8214 31.7154 70.8214 32.8814V33.2362C70.8214 34.4022 70.5749 35.4038 70.0802 36.2377C69.5855 37.0715 68.9108 37.7148 68.0542 38.1641C67.1977 38.6151 66.224 38.8388 65.1314 38.8388ZM65.1314 36.5803C66.0614 36.5803 66.8218 36.2814 67.4127 35.6835C68.0035 35.0857 68.2989 34.2484 68.2989 33.1698V32.9478C68.2989 31.871 68.0035 31.0319 67.4127 30.4341C66.8218 29.8362 66.0614 29.5373 65.1314 29.5373C64.2015 29.5373 63.4411 29.8362 62.8502 30.4341C62.2594 31.0319 61.9639 31.8692 61.9639 32.9478V33.1698C61.9639 34.2484 62.2594 35.0857 62.8502 35.6835C63.4411 36.2814 64.2015 36.5803 65.1314 36.5803Z" fill="#0A231D"/>
<path d="M78.0426 38.8388C76.6249 38.8388 75.459 38.5294 74.543 37.9088C73.627 37.2882 73.0729 36.381 72.8823 35.1853L75.23 34.5875C75.3331 35.1486 75.5184 35.5909 75.7841 35.916C76.0498 36.2411 76.3785 36.4701 76.77 36.603C77.1616 36.7358 77.5864 36.8023 78.0426 36.8023C78.7366 36.8023 79.2575 36.6764 79.6037 36.4264C79.9498 36.1765 80.1246 35.8583 80.1246 35.4737C80.1246 35.0892 79.9585 34.7797 79.6264 34.5875C79.2943 34.3952 78.7891 34.2326 78.1091 34.0997L77.4221 33.9896C76.6686 33.8428 75.9834 33.64 75.3628 33.3813C74.7423 33.1226 74.2441 32.7695 73.8682 32.3185C73.4924 31.8675 73.3036 31.2958 73.3036 30.6019C73.3036 29.539 73.6987 28.7192 74.4888 28.1441C75.2789 27.5689 76.3155 27.2805 77.6004 27.2805C78.8852 27.2805 79.8379 27.5532 80.635 28.1004C81.4321 28.6475 81.9496 29.3782 82.1856 30.2924L79.8379 31.0022C79.719 30.3816 79.4621 29.9428 79.0635 29.6841C78.6649 29.4254 78.1772 29.296 77.6021 29.296C77.027 29.296 76.5568 29.3992 76.2404 29.6055C75.9222 29.8117 75.7649 30.1071 75.7649 30.4917C75.7649 30.8763 75.9275 31.163 76.2526 31.3553C76.5777 31.5476 77.013 31.6874 77.5602 31.7766L78.2472 31.9094C79.0583 32.0562 79.7942 32.2485 80.4515 32.4845C81.1088 32.7205 81.6279 33.0596 82.0125 33.5037C82.3971 33.9459 82.5876 34.5455 82.5876 35.2972C82.5876 36.4334 82.1786 37.3092 81.3587 37.921C80.5389 38.5329 79.4358 38.8405 78.0479 38.8405L78.0426 38.8388Z" fill="#0A231D"/>
</g>
<defs>
<clipPath id="clip0_35_6394">
<rect width="85" height="38.8387" fill="white"/>
</clipPath>
</defs>
</svg>
