<svg width="196" height="90" viewBox="0 0 196 90" fill="none" xmlns="http://www.w3.org/2000/svg">
<g clip-path="url(#clip0_411_77)">
<path d="M6.8229 49.5736L0 0H6.06301L11.8164 45.348H12.6809L17.6744 13.9192H28.3209L33.3144 45.348H34.1788L37.335 18.6715H43.4462L39.1201 49.5736H28.4736L23.4319 17.5337H22.5674L17.4734 49.5736H6.82692H6.8229Z" fill="#878787"/>
<path d="M56.8466 50.2887C55.0815 50.2887 53.4854 49.9751 52.0581 49.3479C50.6308 48.7207 49.501 47.812 48.6687 46.6219C47.8365 45.4318 47.4224 43.9724 47.4224 42.2395C47.4224 40.5066 47.8365 39.1155 48.6687 37.9616C49.501 36.8077 50.6469 35.9312 52.1063 35.3362C53.5658 34.7412 55.2303 34.4436 57.0999 34.4436H64.3851V32.9158C64.3851 31.5931 63.9791 30.5155 63.1629 29.6833C62.3467 28.851 61.0762 28.4369 59.3433 28.4369C57.6105 28.4369 56.3641 28.8349 55.4997 29.635C54.6353 30.4351 54.0643 31.4604 53.795 32.7148L48.3953 30.9337C48.8014 29.6109 49.4568 28.4047 50.3574 27.3192C51.258 26.2336 52.4521 25.3572 53.9477 24.6938C55.4434 24.0304 57.2768 23.7007 59.4479 23.7007C62.7407 23.7007 65.33 24.5249 67.2156 26.1693C69.1012 27.8177 70.0421 30.2019 70.0421 33.3259V43.2085C70.0421 44.2257 70.5165 44.7363 71.4694 44.7363H73.6083V49.577H69.4832C68.261 49.577 67.2598 49.2715 66.4758 48.6604C65.6958 48.0492 65.3058 47.217 65.3058 46.1636V46.0631H64.4414C64.2364 46.5375 63.8826 47.1165 63.3719 47.7959C62.8613 48.4754 62.0894 49.0624 61.0561 49.5529C60.0188 50.0434 58.6196 50.2927 56.8546 50.2927L56.8466 50.2887ZM57.8155 45.5002C59.7494 45.5002 61.3295 44.9494 62.5518 43.8437C63.774 42.7381 64.3851 41.2545 64.3851 39.3849V38.8743H57.4577C56.1993 38.8743 55.1821 39.1477 54.4021 39.6905C53.6221 40.2332 53.2321 41.0333 53.2321 42.0867C53.2321 43.1401 53.6382 43.9281 54.4543 44.5554C55.2705 45.1866 56.3882 45.4962 57.8155 45.4962V45.5002Z" fill="#878787"/>
<path d="M78.7954 49.6139V24.4491H84.5529V27.352H85.4173C85.7912 26.2986 86.4184 25.5347 87.3029 25.0603C88.1834 24.5858 89.2368 24.3486 90.4631 24.3486H92.8875V29.5432H90.3626C88.6659 29.5432 87.2868 29.9935 86.2375 30.8941C85.1841 31.7947 84.6574 33.1778 84.6574 35.0474L84.6051 49.6139H78.7994H78.7954Z" fill="#878787"/>
<path d="M108.193 50.2895C104.933 50.2895 102.251 49.5779 100.144 48.1506C98.0375 46.7233 96.7629 44.6366 96.3247 41.8866L101.724 40.5115C101.962 41.8021 102.388 42.8193 102.999 43.5672C103.61 44.315 104.366 44.8417 105.266 45.1472C106.167 45.4528 107.144 45.6056 108.193 45.6056C109.79 45.6056 110.988 45.3161 111.784 44.7412C112.58 44.1662 112.982 43.4345 112.982 42.55C112.982 41.6654 112.6 40.9538 111.836 40.5115C111.072 40.0693 109.91 39.6954 108.346 39.3898L106.766 39.1365C105.033 38.7988 103.457 38.3324 102.03 37.7373C100.603 37.1423 99.4567 36.3301 98.5923 35.2928C97.7279 34.2555 97.2937 32.9408 97.2937 31.3446C97.2937 28.9001 98.2023 27.0145 100.02 25.6917C101.837 24.369 104.221 23.7056 107.176 23.7056C110.131 23.7056 112.323 24.3328 114.156 25.5912C115.989 26.8496 117.179 28.5302 117.722 30.633L112.323 32.2654C112.049 30.838 111.458 29.8289 110.541 29.2338C109.625 28.6388 108.503 28.3413 107.18 28.3413C105.857 28.3413 104.776 28.5785 104.048 29.0529C103.316 29.5273 102.955 30.2068 102.955 31.0913C102.955 31.9759 103.329 32.6352 104.076 33.0775C104.824 33.5198 105.825 33.8414 107.084 34.0465L108.664 34.352C110.529 34.6898 112.222 35.132 113.734 35.6748C115.245 36.2176 116.44 36.9976 117.324 38.0188C118.209 39.036 118.647 40.415 118.647 42.1439C118.647 44.7572 117.706 46.7716 115.82 48.1787C113.935 49.5859 111.398 50.2936 108.205 50.2936L108.193 50.2895Z" fill="#878787"/>
<path d="M124.544 41.0658V13.9189H130.402V27.7215H131.267C131.54 27.1466 131.978 26.5676 132.59 25.9887C133.201 25.4097 134.009 24.9353 135.01 24.5614C136.011 24.1875 137.278 24.0025 138.805 24.0025C140.739 24.0025 142.456 24.4367 143.952 25.3012C145.447 26.1656 146.609 27.3798 147.442 28.9438C148.274 30.5038 148.688 32.3573 148.688 34.4962V49.5733H142.83V34.9545C142.83 32.9161 142.327 31.3963 141.326 30.3952C140.325 29.3941 138.906 28.8915 137.073 28.8915C135.002 28.8915 133.37 29.579 132.184 30.9541C130.993 32.3291 130.402 34.2912 130.402 36.8362V41.0618H124.544V41.0658Z" fill="#878787"/>
<path d="M158.772 21.2011C157.719 21.2011 156.81 20.8553 156.046 20.1557C155.282 19.4602 154.9 18.5355 154.9 17.3815C154.9 16.2276 155.282 15.3029 156.046 14.6074C156.81 13.9118 157.719 13.562 158.772 13.562C159.894 13.562 160.819 13.9118 161.546 14.6074C162.278 15.3029 162.64 16.2276 162.64 17.3815C162.64 18.5355 162.274 19.4602 161.546 20.1557C160.815 20.8513 159.89 21.2011 158.772 21.2011ZM155.869 49.5742V24.4095H161.727V49.5742H155.869Z" fill="#878787"/>
<path d="M169.165 56.4287V24.4129H174.922V27.7219H175.787C176.366 26.6685 177.291 25.7357 178.565 24.9195C179.84 24.1033 181.665 23.6973 184.041 23.6973C186.08 23.6973 187.973 24.1998 189.722 25.201C191.471 26.2021 192.87 27.6696 193.924 29.6075C194.977 31.5414 195.504 33.8693 195.504 36.5872V37.4034C195.504 40.1213 194.977 42.4452 193.924 44.3831C192.87 46.317 191.479 47.7885 189.746 48.7896C188.013 49.7907 186.112 50.2933 184.041 50.2933C182.445 50.2933 181.114 50.1043 180.045 49.7344C178.975 49.3605 178.111 48.87 177.447 48.2589C176.784 47.6478 176.265 47.0366 175.895 46.4255H175.031V56.4407H169.173L169.165 56.4287ZM182.308 45.1952C184.447 45.1952 186.204 44.5077 187.579 43.1327C188.954 41.7576 189.642 39.7956 189.642 37.2506V36.74C189.642 34.1588 188.946 32.1887 187.555 30.8297C186.164 29.4708 184.415 28.7913 182.308 28.7913C180.201 28.7913 178.444 29.4708 177.037 30.8297C175.626 32.1887 174.922 34.1588 174.922 36.74V37.2506C174.922 39.7956 175.626 41.7576 177.037 43.1327C178.444 44.5077 180.201 45.1952 182.308 45.1952Z" fill="#878787"/>
<path d="M24.2279 89.3294C21.51 89.3294 19.1098 88.8469 17.0191 87.878C14.9324 86.909 13.292 85.5098 12.1019 83.6765C10.9118 81.8431 10.3208 79.6036 10.3208 76.9541V75.6313H16.3838V76.9541C16.3838 79.2981 17.0955 81.047 18.5228 82.2009C19.9501 83.3548 21.8518 83.9338 24.2279 83.9338C26.6041 83.9338 28.4576 83.4433 29.6798 82.4582C30.9021 81.4732 31.5132 80.1987 31.5132 78.6387C31.5132 77.5853 31.2237 76.7289 30.6488 76.0655C30.0698 75.4021 29.2295 74.8674 28.1279 74.4613C27.0222 74.0553 25.6914 73.6653 24.1274 73.2913L22.5996 72.9858C20.2556 72.443 18.2252 71.7555 16.5125 70.9232C14.7957 70.091 13.481 69.0135 12.5643 67.6907C11.6476 66.3679 11.1892 64.6351 11.1892 62.4961C11.1892 60.3572 11.6999 58.5238 12.7171 56.996C13.7343 55.4682 15.1776 54.2982 17.0472 53.482C18.9127 52.6658 21.104 52.2598 23.6168 52.2598C26.1297 52.2598 28.3691 52.6859 30.3392 53.5343C32.3093 54.3826 33.8612 55.6571 34.999 57.3538C36.1369 59.0505 36.7038 61.1734 36.7038 63.7224V65.403H30.6407V63.7224C30.6407 62.2629 30.3513 61.0929 29.7763 60.2084C29.1974 59.3239 28.3852 58.6806 27.3318 58.2705C26.2784 57.8644 25.0401 57.6594 23.6128 57.6594C21.506 57.6594 19.9098 58.0655 18.8243 58.8816C17.7387 59.6978 17.196 60.8517 17.196 62.3474C17.196 63.3002 17.4412 64.1044 17.9358 64.7677C18.4263 65.4311 19.158 65.9739 20.127 66.3961C21.0959 66.8223 22.3101 67.1841 23.7696 67.4897L25.2974 67.8475C27.7419 68.3903 29.8808 69.0778 31.7142 69.9101C33.5476 70.7423 34.9829 71.8359 36.0203 73.1949C37.0576 74.5538 37.5722 76.3188 37.5722 78.494C37.5722 80.6691 37.0214 82.5185 35.9157 84.1469C34.8101 85.7752 33.2662 87.0497 31.28 87.9664C29.2938 88.8831 26.9418 89.3414 24.2239 89.3414L24.2279 89.3294Z" fill="#878787"/>
<path d="M47.0085 88.6137C45.3802 88.6137 44.0775 88.1312 43.1126 87.1623C42.1476 86.1933 41.6611 84.8786 41.6611 83.2141V55.3516H47.5191V63.449H54.7521V68.2857H47.5191V82.2451C47.5191 83.2623 47.9935 83.7729 48.9464 83.7729H53.9882V88.6137H47.0085Z" fill="#878787"/>
<path d="M70.34 89.0235C68.4062 89.0235 66.6894 88.5893 65.1937 87.7249C63.6981 86.8564 62.5442 85.6382 61.732 84.0581C60.9158 82.478 60.5098 80.6366 60.5098 78.5298V63.4527H66.3155V78.0715C66.3155 80.1099 66.814 81.6217 67.8192 82.6067C68.8203 83.5917 70.2395 84.0822 72.0729 84.0822C74.1435 84.0822 75.7839 83.4028 76.9901 82.0438C78.1962 80.6849 78.7993 78.7309 78.7993 76.1859V49.5737H84.605V88.6134H78.8998V85.0994H78.0354C77.5931 86.0161 76.789 86.9007 75.615 87.749C74.445 88.5973 72.684 89.0235 70.3441 89.0235H70.34Z" fill="#878787"/>
<path d="M102.327 89.3291C100.288 89.3291 98.3868 88.8266 96.6217 87.8254C94.8567 86.8243 93.4455 85.3528 92.3921 83.4189C91.3387 81.481 90.812 79.1571 90.812 76.4392V75.623C90.812 72.9051 91.3387 70.5812 92.3921 68.6433C93.4455 66.7054 94.8446 65.2379 96.5936 64.2368C98.3425 63.2357 100.252 62.7331 102.323 62.7331C103.883 62.7331 105.21 62.9221 106.295 63.2919C107.381 63.6659 108.257 64.1403 108.917 64.7193C109.58 65.2982 110.095 65.9254 110.469 66.6049H111.333V52.9551H117.139V88.6135H111.433V85.3045H110.569C109.958 86.3218 109.025 87.2505 107.767 88.0787C106.508 88.911 104.691 89.3251 102.315 89.3251L102.327 89.3291ZM104.06 84.2351C106.167 84.2351 107.915 83.5476 109.307 82.1725C110.698 80.7975 111.393 78.8355 111.393 76.2904V75.7798C111.393 73.1986 110.706 71.2285 109.331 69.8696C107.956 68.5106 106.199 67.8312 104.06 67.8312C101.921 67.8312 100.196 68.5106 98.7888 69.8696C97.3776 71.2285 96.674 73.1986 96.674 75.7798V76.2904C96.674 78.8355 97.3776 80.7975 98.7888 82.1725C100.196 83.5476 101.957 84.2351 104.06 84.2351Z" fill="#878787"/>
<path d="M127.492 49.7465C126.439 49.7465 125.53 49.4007 124.766 48.7011C124.003 48.0056 123.621 47.0809 123.621 45.927C123.621 44.7731 124.003 43.8483 124.766 43.1528C125.53 42.4572 126.439 42.1074 127.492 42.1074C128.614 42.1074 129.539 42.4572 130.267 43.1528C130.998 43.8483 131.36 44.7731 131.36 45.927C131.36 47.0809 130.994 48.0056 130.267 48.7011C129.535 49.3967 128.61 49.7465 127.492 49.7465ZM124.586 88.6133V52.9549H130.444V88.6133H124.586Z" fill="#878787"/>
<path d="M149.802 89.3292C147.29 89.3292 145.038 88.8106 143.052 87.7773C141.066 86.74 139.502 85.2644 138.364 83.3466C137.226 81.4288 136.659 79.129 136.659 76.4433V75.6271C136.659 72.9454 137.226 70.6336 138.364 68.6997C139.502 66.7658 141.062 65.2862 143.052 64.269C145.038 63.2518 147.29 62.7412 149.802 62.7412C152.315 62.7412 154.555 63.2518 156.525 64.269C158.495 65.2862 160.047 66.7658 161.185 68.6997C162.322 70.6376 162.889 72.9454 162.889 75.6271V76.4433C162.889 79.125 162.322 81.4288 161.185 83.3466C160.047 85.2644 158.495 86.744 156.525 87.7773C154.555 88.8146 152.315 89.3292 149.802 89.3292ZM149.802 84.1346C151.941 84.1346 153.69 83.4471 155.049 82.0721C156.408 80.6971 157.088 78.7712 157.088 76.2905V75.7799C157.088 73.3032 156.408 71.3734 155.049 69.9983C153.69 68.6233 151.941 67.9358 149.802 67.9358C147.663 67.9358 145.915 68.6233 144.556 69.9983C143.197 71.3734 142.517 73.2992 142.517 75.7799V76.2905C142.517 78.7712 143.197 80.6971 144.556 82.0721C145.915 83.4471 147.663 84.1346 149.802 84.1346Z" fill="#878787"/>
<path d="M179.498 89.3281C176.237 89.3281 173.556 88.6165 171.449 87.1892C169.342 85.7619 168.068 83.6752 167.629 80.9251L173.029 79.5501C173.266 80.8407 173.692 81.8579 174.304 82.6057C174.915 83.3536 175.671 83.8803 176.571 84.1858C177.472 84.4914 178.449 84.6442 179.498 84.6442C181.094 84.6442 182.292 84.3547 183.088 83.7797C183.885 83.2048 184.287 82.4731 184.287 81.5885C184.287 80.704 183.905 79.9924 183.141 79.5501C182.377 79.1078 181.215 78.7339 179.651 78.4284L178.071 78.1751C176.338 77.8373 174.762 77.371 173.335 76.7759C171.907 76.1809 170.761 75.3687 169.897 74.3314C169.033 73.2941 168.598 71.9794 168.598 70.3832C168.598 67.9387 169.507 66.0531 171.324 64.7303C173.142 63.4075 175.526 62.7441 178.481 62.7441C181.436 62.7441 183.627 63.3713 185.461 64.6298C187.294 65.8882 188.484 67.5688 189.027 69.6716L183.627 71.3039C183.354 69.8766 182.763 68.8675 181.846 68.2724C180.929 67.6774 179.808 67.3799 178.485 67.3799C177.162 67.3799 176.081 67.6171 175.353 68.0915C174.621 68.5659 174.259 69.2454 174.259 70.1299C174.259 71.0144 174.633 71.6738 175.381 72.1161C176.129 72.5583 177.13 72.88 178.388 73.085L179.969 73.3906C181.834 73.7283 183.527 74.1706 185.038 74.7134C186.55 75.2561 187.744 76.0361 188.629 77.0574C189.513 78.0746 189.952 79.4536 189.952 81.1825C189.952 83.7958 189.011 85.8101 187.125 87.2173C185.239 88.6245 182.703 89.3321 179.51 89.3321L179.498 89.3281Z" fill="#878787"/>
</g>
<defs>
<clipPath id="clip0_411_77">
<rect width="195.5" height="89.3289" fill="white"/>
</clipPath>
</defs>
</svg>
