<svg width="146" height="84" viewBox="0 0 146 84" fill="none" xmlns="http://www.w3.org/2000/svg">
<g clip-path="url(#clip0_35_6435)">
<path d="M4.7594 34.5807L0 0H4.22934L8.24272 31.6331H8.84571L12.329 9.70952H19.7556L23.2389 31.6331H23.8419L26.0435 13.0246H30.3065L27.2887 34.5807H19.8622L16.3452 12.2309H15.7422L12.1888 34.5807H4.76221H4.7594Z" fill="#DADADA"/>
<path d="M39.6541 35.08C38.4228 35.08 37.3094 34.8613 36.3138 34.4237C35.3181 33.9862 34.5301 33.3524 33.9495 32.5222C33.369 31.6921 33.0801 30.674 33.0801 29.4652C33.0801 28.2564 33.369 27.286 33.9495 26.4811C34.5301 25.6762 35.3294 25.0648 36.3474 24.6497C37.3655 24.2346 38.5266 24.0271 39.8308 24.0271H44.9127V22.9613C44.9127 22.0386 44.6294 21.287 44.0601 20.7064C43.4908 20.1259 42.6045 19.837 41.3957 19.837C40.1869 19.837 39.3175 20.1147 38.7145 20.6728C38.1115 21.2309 37.7133 21.9461 37.5254 22.8211L33.7588 21.5787C34.0421 20.656 34.4992 19.8146 35.1274 19.0573C35.7557 18.3001 36.5886 17.6887 37.6319 17.2259C38.6753 16.7632 39.9542 16.5332 41.4686 16.5332C43.7656 16.5332 45.5718 17.1081 46.8871 18.2552C48.2025 19.4051 48.8588 21.0682 48.8588 23.2474V30.1411C48.8588 30.8507 49.1897 31.2069 49.8544 31.2069H51.3464V34.5836H48.4689C47.6163 34.5836 46.918 34.3705 46.3711 33.9442C45.827 33.5179 45.5549 32.9373 45.5549 32.2025V32.1324H44.9519C44.8089 32.4633 44.5621 32.8672 44.2059 33.3412C43.8497 33.8151 43.3113 34.2246 42.5905 34.5668C41.8669 34.9089 40.8909 35.0828 39.6597 35.0828L39.6541 35.08ZM40.33 31.7397C41.679 31.7397 42.7812 31.3555 43.6338 30.5842C44.4864 29.813 44.9127 28.7781 44.9127 27.4739V27.1178H40.0804C39.2025 27.1178 38.493 27.3085 37.9489 27.6871C37.4048 28.0657 37.1327 28.6238 37.1327 29.3586C37.1327 30.0934 37.416 30.6431 37.9853 31.0807C38.5547 31.521 39.3343 31.7369 40.33 31.7369V31.7397Z" fill="#DADADA"/>
<path d="M54.9644 34.6087V17.0547H58.9805V19.0797H59.5835C59.8444 18.3448 60.2819 17.812 60.8989 17.481C61.5131 17.1501 62.2479 16.9846 63.1033 16.9846H64.7945V20.6082H63.0332C61.8496 20.6082 60.8877 20.9223 60.1557 21.5505C59.4209 22.1787 59.0535 23.1435 59.0535 24.4477L59.017 34.6087H54.9672H54.9644Z" fill="#DADADA"/>
<path d="M75.4716 35.0799C73.197 35.0799 71.3264 34.5835 69.8568 33.5879C68.3871 32.5922 67.4981 31.1366 67.1924 29.2183L70.959 28.2591C71.1244 29.1594 71.4217 29.869 71.848 30.3906C72.2743 30.9123 72.8016 31.2797 73.4298 31.4928C74.058 31.706 74.7396 31.8125 75.4716 31.8125C76.585 31.8125 77.4208 31.6106 77.9761 31.2096C78.5314 30.8085 78.8118 30.2981 78.8118 29.681C78.8118 29.064 78.5454 28.5676 78.0125 28.2591C77.4797 27.9506 76.6691 27.6898 75.5781 27.4766L74.4759 27.2999C73.2671 27.0644 72.1677 26.739 71.1721 26.3239C70.1765 25.9089 69.3772 25.3423 68.7742 24.6187C68.1712 23.8952 67.8683 22.9781 67.8683 21.8646C67.8683 20.1594 68.5021 18.8441 69.7698 17.9214C71.0375 16.9986 72.7006 16.5359 74.762 16.5359C76.8234 16.5359 78.3519 16.9734 79.6308 17.8512C80.9097 18.7291 81.7398 19.9014 82.1185 21.3682L78.3519 22.5069C78.1612 21.5112 77.7489 20.8073 77.1094 20.3922C76.47 19.9771 75.6875 19.7696 74.7648 19.7696C73.8421 19.7696 73.0877 19.9351 72.58 20.266C72.0696 20.5969 71.8172 21.0709 71.8172 21.6879C71.8172 22.3049 72.078 22.7649 72.5996 23.0734C73.1213 23.3819 73.8196 23.6063 74.6975 23.7493L75.7997 23.9625C77.101 24.1981 78.2818 24.5066 79.3363 24.8852C80.3908 25.2638 81.2238 25.8079 81.8408 26.5203C82.4578 27.2298 82.7635 28.1918 82.7635 29.3978C82.7635 31.2208 82.1072 32.6259 80.7919 33.6075C79.4765 34.5891 77.7068 35.0827 75.48 35.0827L75.4716 35.0799Z" fill="#DADADA"/>
<path d="M86.8779 28.6461V9.70947H90.9642V19.3377H91.5672C91.7579 18.9366 92.0636 18.5327 92.4899 18.1289C92.9162 17.725 93.48 17.3941 94.1783 17.1332C94.8766 16.8724 95.7601 16.7434 96.8258 16.7434C98.1749 16.7434 99.3724 17.0463 100.416 17.6493C101.459 18.2523 102.27 19.0993 102.85 20.1903C103.431 21.2784 103.72 22.5714 103.72 24.0634V34.5807H99.6332V24.3831C99.6332 22.9612 99.2827 21.9011 98.5843 21.2027C97.886 20.5044 96.896 20.1538 95.6171 20.1538C94.1727 20.1538 93.034 20.6334 92.2067 21.5926C91.3765 22.5517 90.9642 23.9204 90.9642 25.6957V28.6433H86.8779V28.6461Z" fill="#DADADA"/>
<path d="M110.754 14.7887C110.019 14.7887 109.385 14.5475 108.852 14.0595C108.319 13.5743 108.053 12.9293 108.053 12.1243C108.053 11.3194 108.319 10.6744 108.852 10.1892C109.385 9.70396 110.019 9.45996 110.754 9.45996C111.536 9.45996 112.181 9.70396 112.689 10.1892C113.199 10.6744 113.452 11.3194 113.452 12.1243C113.452 12.9293 113.196 13.5743 112.689 14.0595C112.178 14.5447 111.533 14.7887 110.754 14.7887ZM108.729 34.5808V17.0268H112.815V34.5808H108.729Z" fill="#DADADA"/>
<path d="M118.003 39.3625V17.0295H122.02V19.3377H122.623C123.026 18.6029 123.672 17.9522 124.561 17.3829C125.45 16.8135 126.723 16.5303 128.38 16.5303C129.802 16.5303 131.123 16.8808 132.343 17.5792C133.563 18.2775 134.539 19.3012 135.274 20.653C136.009 22.002 136.376 23.6259 136.376 25.5218V26.0912C136.376 27.9871 136.009 29.6081 135.274 30.9599C134.539 32.3089 133.569 33.3354 132.36 34.0338C131.151 34.7321 129.825 35.0827 128.38 35.0827C127.267 35.0827 126.339 34.9509 125.593 34.6929C124.847 34.432 124.244 34.0899 123.781 33.6636C123.318 33.2373 122.956 32.811 122.698 32.3847H122.095V39.3709H118.009L118.003 39.3625ZM127.172 31.5265C128.664 31.5265 129.889 31.0469 130.848 30.0877C131.808 29.1285 132.287 27.7599 132.287 25.9846V25.6284C132.287 23.8278 131.802 22.4536 130.832 21.5056C129.861 20.5577 128.641 20.0837 127.172 20.0837C125.702 20.0837 124.476 20.5577 123.495 21.5056C122.51 22.4536 122.02 23.8278 122.02 25.6284V25.9846C122.02 27.7599 122.51 29.1285 123.495 30.0877C124.476 31.0469 125.702 31.5265 127.172 31.5265Z" fill="#DADADA"/>
<path d="M16.9003 62.3125C15.0044 62.3125 13.3301 61.976 11.8717 61.3C10.4161 60.6241 9.27182 59.6481 8.44166 58.3692C7.61149 57.0903 7.19922 55.5282 7.19922 53.6799V52.7572H11.4286V53.6799C11.4286 55.315 11.925 56.535 12.9206 57.3399C13.9162 58.1449 15.2428 58.5487 16.9003 58.5487C18.5578 58.5487 19.8508 58.2066 20.7034 57.5194C21.556 56.8323 21.9823 55.9433 21.9823 54.8551C21.9823 54.1203 21.7803 53.5229 21.3793 53.0601C20.9754 52.5974 20.3892 52.2244 19.6208 51.9411C18.8495 51.6578 17.9212 51.3858 16.8302 51.125L15.7645 50.9118C14.1294 50.5332 12.7131 50.0536 11.5183 49.473C10.3207 48.8925 9.40363 48.1409 8.76418 47.2182C8.12474 46.2954 7.80501 45.0867 7.80501 43.5946C7.80501 42.1026 8.1612 40.8237 8.87076 39.7579C9.58032 38.6922 10.5872 37.876 11.8913 37.3067C13.1926 36.7374 14.7212 36.4541 16.474 36.4541C18.2269 36.4541 19.7891 36.7514 21.1633 37.3432C22.5376 37.9349 23.6201 38.824 24.4138 40.0075C25.2075 41.1911 25.603 42.6719 25.603 44.45V45.6223H21.3737V44.45C21.3737 43.4319 21.1717 42.6158 20.7707 41.9988C20.3668 41.3818 19.8003 40.933 19.0655 40.647C18.3307 40.3637 17.4669 40.2207 16.4712 40.2207C15.0016 40.2207 13.8882 40.5039 13.1309 41.0733C12.3737 41.6426 11.9951 42.4475 11.9951 43.4908C11.9951 44.1555 12.1662 44.7164 12.5111 45.1792C12.8533 45.642 13.3637 46.0206 14.0396 46.3151C14.7155 46.6124 15.5625 46.8648 16.5806 47.0779L17.6463 47.3275C19.3515 47.7062 20.8436 48.1857 22.1225 48.7663C23.4014 49.3468 24.4026 50.1097 25.1262 51.0576C25.8498 52.0056 26.2088 53.2368 26.2088 54.7541C26.2088 56.2714 25.8246 57.5615 25.0533 58.6974C24.282 59.8332 23.2051 60.7223 21.8196 61.3617C20.4341 62.0012 18.7934 62.3209 16.8975 62.3209L16.9003 62.3125Z" fill="#DADADA"/>
<path d="M32.7912 61.8133C31.6553 61.8133 30.7466 61.4767 30.0735 60.8008C29.4004 60.1249 29.061 59.2078 29.061 58.0467V38.6108H33.1473V44.2593H38.1928V47.6332H33.1473V57.3708C33.1473 58.0804 33.4783 58.4366 34.143 58.4366H37.6599V61.8133H32.7912Z" fill="#DADADA"/>
<path d="M49.0662 62.0995C47.7172 62.0995 46.5197 61.7966 45.4763 61.1937C44.433 60.5879 43.6281 59.7381 43.0616 58.6359C42.4922 57.5337 42.209 56.2491 42.209 54.7795V44.2623H46.2588V54.4598C46.2588 55.8817 46.6066 56.9363 47.3077 57.6234C48.0061 58.3105 48.9961 58.6527 50.275 58.6527C51.7194 58.6527 52.8637 58.1787 53.705 57.2308C54.5464 56.2828 54.9671 54.9198 54.9671 53.1445V34.5808H59.0169V61.8135H55.0372V59.3622H54.4342C54.1257 60.0017 53.5648 60.6187 52.7459 61.2105C51.9297 61.8022 50.7013 62.0995 49.069 62.0995H49.0662Z" fill="#DADADA"/>
<path d="M71.3795 62.3127C69.9576 62.3127 68.631 61.9621 67.3998 61.2637C66.1686 60.5654 65.1842 59.5389 64.4494 58.1899C63.7146 56.8381 63.3472 55.217 63.3472 53.3211V52.7518C63.3472 50.8559 63.7146 49.2348 64.4494 47.883C65.1842 46.5312 66.1602 45.5075 67.3802 44.8092C68.6002 44.1108 69.9324 43.7602 71.3767 43.7602C72.4649 43.7602 73.3904 43.8921 74.1477 44.1501C74.9049 44.4109 75.5163 44.7418 75.9763 45.1457C76.439 45.5496 76.798 45.9871 77.0589 46.4611H77.6618V36.9395H81.7117V61.8134H77.732V59.5053H77.129C76.7027 60.2148 76.052 60.8627 75.1742 61.4404C74.2963 62.021 73.0286 62.3099 71.3711 62.3099L71.3795 62.3127ZM72.5883 58.7592C74.0579 58.7592 75.2779 58.2796 76.2483 57.3205C77.2187 56.3613 77.7039 54.9927 77.7039 53.2173V52.8612C77.7039 51.0606 77.2243 49.6864 76.2652 48.7384C75.306 47.7904 74.0804 47.3165 72.5883 47.3165C71.0963 47.3165 69.8931 47.7904 68.9115 48.7384C67.9271 49.6864 67.4363 51.0606 67.4363 52.8612V53.2173C67.4363 54.9927 67.9271 56.3613 68.9115 57.3205C69.8931 58.2796 71.1215 58.7592 72.5883 58.7592Z" fill="#DADADA"/>
<path d="M88.9337 34.7013C88.1989 34.7013 87.5651 34.4601 87.0322 33.9721C86.4993 33.4869 86.2329 32.8418 86.2329 32.0369C86.2329 31.232 86.4993 30.5869 87.0322 30.1018C87.5651 29.6166 88.1989 29.3726 88.9337 29.3726C89.7162 29.3726 90.3613 29.6166 90.8689 30.1018C91.3793 30.5869 91.6318 31.232 91.6318 32.0369C91.6318 32.8418 91.3765 33.4869 90.8689 33.9721C90.3585 34.4573 89.7134 34.7013 88.9337 34.7013ZM86.906 61.8134V36.9394H90.9923V61.8134H86.906Z" fill="#DADADA"/>
<path d="M104.496 62.3127C102.743 62.3127 101.173 61.9509 99.7874 61.2301C98.402 60.5065 97.311 59.4772 96.5173 58.1394C95.7236 56.8016 95.3281 55.1974 95.3281 53.3239V52.7546C95.3281 50.8839 95.7236 49.2713 96.5173 47.9223C97.311 46.5733 98.3992 45.5412 99.7874 44.8316C101.173 44.1221 102.743 43.7659 104.496 43.7659C106.249 43.7659 107.811 44.1221 109.186 44.8316C110.56 45.5412 111.642 46.5733 112.436 47.9223C113.23 49.2741 113.625 50.8839 113.625 52.7546V53.3239C113.625 55.1946 113.23 56.8016 112.436 58.1394C111.642 59.4772 110.56 60.5093 109.186 61.2301C107.811 61.9537 106.249 62.3127 104.496 62.3127ZM104.496 58.6891C105.988 58.6891 107.208 58.2096 108.156 57.2504C109.104 56.2912 109.578 54.9478 109.578 53.2174V52.8612C109.578 51.1335 109.104 49.7873 108.156 48.8282C107.208 47.869 105.988 47.3894 104.496 47.3894C103.004 47.3894 101.784 47.869 100.836 48.8282C99.8884 49.7873 99.4144 51.1307 99.4144 52.8612V53.2174C99.4144 54.9478 99.8884 56.2912 100.836 57.2504C101.784 58.2096 103.004 58.6891 104.496 58.6891Z" fill="#DADADA"/>
<path d="M125.211 62.3126C122.936 62.3126 121.066 61.8162 119.596 60.8205C118.126 59.8249 117.237 58.3693 116.932 56.451L120.698 55.4918C120.864 56.3921 121.161 57.1016 121.587 57.6233C122.014 58.1449 122.541 58.5123 123.169 58.7255C123.797 58.9386 124.479 59.0452 125.211 59.0452C126.324 59.0452 127.16 58.8433 127.715 58.4422C128.271 58.0412 128.551 57.5307 128.551 56.9137C128.551 56.2967 128.285 55.8003 127.752 55.4918C127.219 55.1833 126.408 54.9224 125.317 54.7093L124.215 54.5326C123.006 54.297 121.907 53.9717 120.911 53.5566C119.916 53.1415 119.116 52.575 118.513 51.8514C117.91 51.1278 117.608 50.2107 117.608 49.0973C117.608 47.3921 118.241 46.0767 119.509 45.154C120.777 44.2313 122.44 43.7686 124.501 43.7686C126.563 43.7686 128.091 44.2061 129.37 45.0839C130.649 45.9618 131.479 47.1341 131.858 48.6009L128.091 49.7395C127.9 48.7439 127.488 48.04 126.849 47.6249C126.209 47.2098 125.427 47.0023 124.504 47.0023C123.581 47.0023 122.827 47.1677 122.319 47.4987C121.809 47.8296 121.556 48.3036 121.556 48.9206C121.556 49.5376 121.817 49.9976 122.339 50.3061C122.861 50.6146 123.559 50.8389 124.437 50.982L125.539 51.1951C126.84 51.4307 128.021 51.7392 129.076 52.1178C130.13 52.4965 130.963 53.0406 131.58 53.7529C132.197 54.4625 132.503 55.4245 132.503 56.6304C132.503 58.4534 131.847 59.8585 130.531 60.8401C129.216 61.8218 127.446 62.3154 125.219 62.3154L125.211 62.3126Z" fill="#DADADA"/>
</g>
<path d="M83.302 80.3345V72.0716H84.2285V80.3345H83.302ZM83.6776 80.3345V79.5082H88.9108V80.3345H83.6776ZM83.6776 76.5035V75.7022H88.3223V76.5035H83.6776ZM83.6776 72.8979V72.0716H88.9108V72.8979H83.6776ZM93.2706 80.4847C92.7281 80.4847 92.2482 80.4263 91.8309 80.3094C91.4219 80.1926 91.0797 80.0173 90.8042 79.7836C90.5372 79.5499 90.341 79.262 90.2158 78.9198C90.099 78.5776 90.0572 78.1853 90.0906 77.7429L90.942 77.5927C90.9002 78.0601 90.967 78.4482 91.1423 78.757C91.3176 79.0575 91.5888 79.2828 91.956 79.4331C92.3316 79.5833 92.7782 79.6584 93.2956 79.6584C93.7964 79.6584 94.2179 79.6 94.5601 79.4831C94.9023 79.3579 95.1611 79.1827 95.3363 78.9573C95.5199 78.732 95.6118 78.4732 95.6118 78.1811C95.6118 77.8473 95.5074 77.5885 95.2988 77.4049C95.0985 77.2129 94.8314 77.0669 94.4975 76.9667C94.1637 76.8666 93.8006 76.7747 93.4083 76.6913C93.0244 76.6078 92.6446 76.516 92.269 76.4159C91.8934 76.3157 91.5512 76.1822 91.2424 76.0152C90.942 75.84 90.6999 75.6146 90.5163 75.3392C90.3327 75.0637 90.2409 74.709 90.2409 74.275C90.2409 73.7909 90.3619 73.3736 90.6039 73.0231C90.8543 72.6725 91.1965 72.4013 91.6305 72.2093C92.0646 72.0173 92.5695 71.9213 93.1454 71.9213C93.7213 71.9213 94.2388 72.0131 94.6978 72.1968C95.1569 72.3804 95.5241 72.66 95.7995 73.0356C96.0833 73.4028 96.2294 73.866 96.2377 74.4252L95.3363 74.613C95.3363 74.3042 95.2821 74.033 95.1736 73.7993C95.0734 73.5572 94.9232 73.3569 94.7229 73.1983C94.5309 73.0398 94.2972 72.9229 94.0218 72.8478C93.7547 72.7643 93.4584 72.7226 93.1329 72.7226C92.749 72.7226 92.4068 72.7852 92.1063 72.9104C91.8058 73.0356 91.5679 73.2109 91.3927 73.4362C91.2257 73.6532 91.1423 73.9119 91.1423 74.2124C91.1423 74.5797 91.2633 74.8634 91.5053 75.0637C91.7474 75.2641 92.0604 75.4226 92.4443 75.5395C92.8282 75.648 93.2372 75.7481 93.6712 75.84C94.0301 75.9234 94.3765 76.0152 94.7103 76.1154C95.0525 76.2155 95.3572 76.3491 95.6243 76.516C95.8997 76.6829 96.1167 76.8999 96.2753 77.167C96.4339 77.4341 96.5132 77.7763 96.5132 78.1936C96.5132 78.6527 96.3921 79.0575 96.1501 79.408C95.9164 79.7502 95.5575 80.0173 95.0734 80.2093C94.5977 80.3929 93.9967 80.4847 93.2706 80.4847ZM99.9095 80.3345V72.0716H100.848V80.3345H99.9095ZM97.368 72.9104V72.0716H103.39V72.9104H97.368ZM107.633 80.3345V79.1576L110.487 76.8666C110.679 76.708 110.875 76.5369 111.076 76.3533C111.284 76.1613 111.476 75.9568 111.652 75.7398C111.827 75.5144 111.969 75.2766 112.077 75.0262C112.194 74.7758 112.252 74.5045 112.252 74.2124C112.252 73.9203 112.186 73.6657 112.052 73.4487C111.919 73.2317 111.718 73.0606 111.451 72.9354C111.192 72.8102 110.867 72.7476 110.475 72.7476C110.233 72.7476 109.999 72.781 109.774 72.8478C109.548 72.9062 109.348 73.0189 109.173 73.1858C108.997 73.3527 108.864 73.5823 108.772 73.8744C108.68 74.1665 108.639 74.5421 108.647 75.0011L107.745 74.8634C107.729 74.2708 107.816 73.7534 108.008 73.311C108.209 72.8603 108.513 72.5139 108.922 72.2719C109.331 72.0215 109.853 71.8963 110.487 71.8963C111.038 71.8963 111.514 71.9923 111.914 72.1842C112.315 72.3679 112.624 72.6266 112.841 72.9605C113.058 73.2943 113.166 73.6866 113.166 74.1373C113.166 74.5296 113.1 74.8885 112.966 75.214C112.841 75.5395 112.674 75.84 112.465 76.1154C112.265 76.3908 112.044 76.6412 111.802 76.8666C111.56 77.0836 111.33 77.2755 111.113 77.4425L108.609 79.4456V79.5457L113.404 79.4957V80.3345H107.633ZM117.922 80.5097C117.438 80.5097 116.995 80.4096 116.595 80.2093C116.194 80.0006 115.852 79.7085 115.568 79.3329C115.293 78.9573 115.08 78.5108 114.93 77.9933C114.779 77.4675 114.704 76.8874 114.704 76.2531C114.704 75.3517 114.838 74.5797 115.105 73.937C115.38 73.286 115.76 72.7852 116.244 72.4346C116.728 72.0841 117.292 71.9088 117.934 71.9088C118.602 71.9088 119.174 72.0966 119.649 72.4722C120.125 72.8394 120.488 73.3486 120.739 73.9996C120.997 74.6506 121.127 75.4018 121.127 76.2531C121.127 76.8707 121.052 77.4383 120.901 77.9558C120.759 78.4732 120.547 78.9239 120.263 79.3079C119.987 79.6918 119.654 79.9881 119.261 80.1968C118.869 80.4054 118.422 80.5097 117.922 80.5097ZM117.909 79.6709C118.251 79.6709 118.56 79.5958 118.836 79.4456C119.111 79.2954 119.349 79.0742 119.549 78.782C119.758 78.4899 119.916 78.1269 120.025 77.6928C120.142 77.2505 120.2 76.7455 120.2 76.178C120.2 75.4685 120.104 74.8593 119.912 74.3501C119.729 73.8327 119.466 73.4362 119.124 73.1608C118.781 72.877 118.381 72.7351 117.922 72.7351C117.513 72.7351 117.133 72.8603 116.782 73.1107C116.432 73.3611 116.148 73.7408 115.931 74.25C115.722 74.7591 115.618 75.4101 115.618 76.203C115.618 76.7622 115.672 77.2588 115.781 77.6928C115.898 78.1185 116.056 78.4816 116.257 78.782C116.457 79.0742 116.695 79.2954 116.97 79.4456C117.254 79.5958 117.567 79.6709 117.909 79.6709ZM122.585 80.3345V79.1576L125.44 76.8666C125.632 76.708 125.828 76.5369 126.028 76.3533C126.237 76.1613 126.429 75.9568 126.604 75.7398C126.779 75.5144 126.921 75.2766 127.03 75.0262C127.147 74.7758 127.205 74.5045 127.205 74.2124C127.205 73.9203 127.138 73.6657 127.005 73.4487C126.871 73.2317 126.671 73.0606 126.404 72.9354C126.145 72.8102 125.82 72.7476 125.427 72.7476C125.185 72.7476 124.951 72.781 124.726 72.8478C124.501 72.9062 124.3 73.0189 124.125 73.1858C123.95 73.3527 123.816 73.5823 123.725 73.8744C123.633 74.1665 123.591 74.5421 123.599 75.0011L122.698 74.8634C122.681 74.2708 122.769 73.7534 122.961 73.311C123.161 72.8603 123.466 72.5139 123.875 72.2719C124.284 72.0215 124.805 71.8963 125.44 71.8963C125.991 71.8963 126.466 71.9923 126.867 72.1842C127.268 72.3679 127.576 72.6266 127.793 72.9605C128.01 73.2943 128.119 73.6866 128.119 74.1373C128.119 74.5296 128.052 74.8885 127.919 75.214C127.793 75.5395 127.627 75.84 127.418 76.1154C127.218 76.3908 126.996 76.6412 126.754 76.8666C126.512 77.0836 126.283 77.2755 126.066 77.4425L123.562 79.4456V79.5457L128.357 79.4957V80.3345H122.585ZM132.582 80.5097C132.006 80.5097 131.509 80.4221 131.092 80.2468C130.683 80.0632 130.366 79.8045 130.141 79.4706C129.915 79.1368 129.794 78.7445 129.777 78.2938L130.641 78.0559C130.683 78.565 130.85 78.9615 131.142 79.2453C131.443 79.529 131.91 79.6709 132.544 79.6709C133.212 79.6709 133.729 79.4998 134.097 79.1576C134.464 78.8154 134.648 78.2729 134.648 77.5301C134.648 77.2714 134.618 77.021 134.56 76.7789C134.51 76.5369 134.418 76.3199 134.285 76.1279C134.159 75.9359 133.984 75.7815 133.759 75.6647C133.542 75.5478 133.266 75.4894 132.932 75.4894C132.632 75.4894 132.373 75.527 132.156 75.6021C131.948 75.6772 131.772 75.7815 131.63 75.9151C131.488 76.0403 131.372 76.178 131.28 76.3282C131.196 76.4701 131.134 76.6203 131.092 76.7789H129.978L130.228 72.0716H135.198V72.8979H131.042L130.854 76.0653H131.004C131.171 75.5478 131.451 75.1889 131.843 74.9886C132.244 74.78 132.67 74.6756 133.12 74.6756C133.688 74.6756 134.151 74.7967 134.51 75.0387C134.877 75.2724 135.148 75.6021 135.324 76.0277C135.507 76.4534 135.599 76.95 135.599 77.5176C135.599 78.2354 135.466 78.8154 135.198 79.2578C134.931 79.6918 134.568 80.009 134.109 80.2093C133.659 80.4096 133.149 80.5097 132.582 80.5097Z" fill="#DADADA"/>
<path d="M139.517 7.01343V2.33197H141.148C141.385 2.33197 141.6 2.35089 141.794 2.38872C141.992 2.42654 142.167 2.48329 142.319 2.55895C142.475 2.63461 142.605 2.72682 142.709 2.83558C142.817 2.94434 142.898 3.07202 142.95 3.21861C143.007 3.36047 143.035 3.51889 143.035 3.69385C143.035 3.85935 143.009 4.01067 142.957 4.14781C142.91 4.28494 142.836 4.40552 142.737 4.50956C142.638 4.61359 142.515 4.69871 142.368 4.76491C142.222 4.82638 142.051 4.86894 141.857 4.89259V4.9848C142.028 5.00371 142.177 5.04863 142.304 5.11957C142.432 5.1905 142.541 5.29453 142.631 5.43166C142.72 5.56407 142.798 5.7414 142.865 5.96365L143.163 7.01343H142.46L142.219 6.05586C142.177 5.86198 142.103 5.70593 141.999 5.58771C141.9 5.46949 141.775 5.38201 141.623 5.32527C141.472 5.26852 141.295 5.24015 141.091 5.24015H140.169V7.01343H139.517ZM140.169 4.70816H141.091C141.512 4.70816 141.829 4.6325 142.042 4.48118C142.259 4.32986 142.368 4.09816 142.368 3.78606C142.368 3.47396 142.264 3.24462 142.056 3.09803C141.853 2.94671 141.536 2.87105 141.106 2.87105H140.169V4.70816Z" fill="#DADADA"/>
<circle cx="141.187" cy="4.81319" r="4.48386" stroke="#DADADA" stroke-width="0.658647"/>
<defs>
<clipPath id="clip0_35_6435">
<rect width="136.374" height="62.3126" fill="white"/>
</clipPath>
</defs>
</svg>
